<svg width="73" height="14" viewBox="0 0 73 14" fill="none" xmlns="http://www.w3.org/2000/svg">
<g clip-path="url(#clip0_31_1191)">
<path d="M3.81449 10.9511C3.36448 10.9511 2.94051 10.9112 2.5426 10.83C2.14587 10.7489 1.78468 10.6438 1.45901 10.5136C1.13333 10.3833 0.846744 10.2451 0.599234 10.0989C0.351724 9.95264 0.151585 9.8144 0 9.68417L1.18544 7.76484C1.34532 7.87909 1.52651 8.00019 1.72902 8.12586C1.93152 8.25267 2.14943 8.3692 2.38273 8.47545C2.61602 8.58169 2.85998 8.66852 3.11341 8.73593C3.36684 8.80333 3.62264 8.83646 3.88081 8.83646C4.13898 8.83646 4.33675 8.80333 4.51321 8.73593C4.68966 8.66852 4.82703 8.56799 4.92414 8.43432C5.02244 8.30065 5.07099 8.13271 5.07099 7.9305C5.07099 7.74542 5.02717 7.58433 4.93954 7.44724C4.8519 7.31128 4.7169 7.18333 4.53689 7.06566C4.35688 6.94798 4.12832 6.82346 3.85239 6.6955C3.57646 6.56755 3.2496 6.42017 2.87301 6.25451C2.59471 6.1277 2.33417 5.98375 2.09258 5.82152C1.85099 5.65929 1.6402 5.4765 1.46019 5.27086C1.28018 5.06522 1.14044 4.83787 1.04215 4.58996C0.943853 4.3409 0.895299 4.069 0.895299 3.77196C0.895299 3.38923 0.975828 3.02136 1.13807 2.66949C1.30031 2.31761 1.53124 2.00229 1.83205 1.72125C2.13285 1.44135 2.49286 1.21857 2.91327 1.0552C3.3325 0.891827 3.7991 0.80957 4.3107 0.80957C4.66716 0.80957 5.03428 0.850699 5.41324 0.934098C5.7922 1.0175 6.1534 1.12717 6.49684 1.26541C6.84027 1.40365 7.13752 1.56016 7.3874 1.73382L6.42933 3.55261C6.23275 3.42237 6.0184 3.30698 5.78747 3.20644C5.55654 3.10591 5.31968 3.02822 5.0781 2.97224C4.83651 2.9174 4.59966 2.88884 4.36517 2.88884C4.13069 2.88884 3.91752 2.92311 3.74817 2.9928C3.57764 3.06249 3.44737 3.15846 3.355 3.28299C3.26263 3.40751 3.21644 3.55261 3.21644 3.71826C3.21644 3.8405 3.2425 3.94675 3.29579 4.03472C3.34908 4.12383 3.42961 4.20266 3.53856 4.27121C3.64751 4.3409 3.7837 4.41059 3.94713 4.48142C4.11056 4.55225 4.30359 4.63108 4.52505 4.71791C5.0248 4.92698 5.47127 5.13148 5.86326 5.33141C6.25643 5.53134 6.58684 5.74955 6.85567 5.98604C7.12331 6.22252 7.327 6.49443 7.46319 6.80061C7.60056 7.10679 7.66925 7.46666 7.66925 7.88137C7.66925 8.52571 7.51056 9.07638 7.19318 9.5345C6.8758 9.99263 6.42815 10.3434 5.85142 10.5867C5.2735 10.83 4.59492 10.9511 3.81212 10.9511H3.81449Z" fill="white"/>
<path d="M11.9641 10.7612V0.986328H15.7099C16.3648 0.986328 16.9534 1.09715 17.4756 1.31764C17.9979 1.53928 18.4124 1.87287 18.7191 2.31843C19.0258 2.76513 19.1798 3.32722 19.1798 4.00698C19.1798 4.68674 19.0258 5.25454 18.7191 5.72181C18.4124 6.18907 17.9979 6.54552 17.4756 6.78772C16.9534 7.03106 16.3648 7.15216 15.7099 7.15216H14.3279V10.76H11.9629L11.9641 10.7612ZM14.329 5.34023H14.9496C15.2397 5.34023 15.5192 5.30253 15.7845 5.22712C16.0509 5.15172 16.2677 5.02377 16.4358 4.84212C16.604 4.66047 16.6881 4.4057 16.6881 4.07781C16.6881 3.74993 16.604 3.48831 16.4358 3.30437C16.2677 3.12043 16.0509 2.99134 15.7845 2.91594C15.518 2.84053 15.2397 2.80283 14.9496 2.80283H14.329V5.33908V5.34023Z" fill="white"/>
<path d="M23.2207 10.7612V0.986328H25.5857V10.7623H23.2207V10.7612Z" fill="white"/>
<path d="M30.6211 10.7612V0.986328H32.9861L36.9663 6.9648V0.986328H39.3313V10.7623H36.9663L32.9861 4.78385V10.7623H30.6211V10.7612Z" fill="white"/>
<path d="M44.6738 13.8082V11.9482H50.4767V13.8082H44.6738Z" fill="white"/>
<path d="M47.5757 10.9507C46.8675 10.9507 46.2043 10.8204 45.5861 10.5599C44.9679 10.2995 44.4256 9.93731 43.959 9.47233C43.4924 9.00849 43.1264 8.46925 42.8623 7.85461C42.5982 7.23997 42.4668 6.58192 42.4668 5.87817C42.4668 5.17441 42.5982 4.51636 42.8623 3.90172C43.1264 3.28708 43.4924 2.74898 43.959 2.284C44.4256 1.82016 44.9679 1.45801 45.5861 1.19638C46.2043 0.935904 46.8675 0.805664 47.5757 0.805664C48.2839 0.805664 48.9471 0.935904 49.5652 1.19638C50.1834 1.45686 50.7258 1.81902 51.1924 2.284C51.659 2.74784 52.0249 3.28708 52.289 3.90172C52.5531 4.51636 52.6858 5.17441 52.6858 5.87817C52.6858 6.58192 52.5531 7.23997 52.289 7.85461C52.0249 8.46925 51.659 9.00849 51.1924 9.47233C50.7258 9.93617 50.1834 10.2983 49.5652 10.5599C48.9471 10.8204 48.2839 10.9507 47.5757 10.9507ZM47.5757 8.74687C47.9523 8.74687 48.2969 8.67832 48.6107 8.53894C48.9234 8.40071 49.1946 8.20421 49.4208 7.94944C49.647 7.69467 49.8246 7.39306 49.9489 7.04347C50.0733 6.69388 50.1361 6.30544 50.1361 5.87931C50.1361 5.45317 50.0733 5.06474 49.9489 4.71515C49.8246 4.36556 49.6481 4.06395 49.4208 3.80918C49.1934 3.55441 48.9234 3.35791 48.6107 3.21967C48.2969 3.08144 47.9523 3.01175 47.5757 3.01175C47.1991 3.01175 46.8545 3.08144 46.5406 3.21967C46.228 3.35791 45.9568 3.55441 45.7306 3.80918C45.5044 4.06395 45.3268 4.36556 45.2024 4.71515C45.0769 5.06474 45.0153 5.45317 45.0153 5.87931C45.0153 6.30544 45.0781 6.69388 45.2024 7.04347C45.3268 7.39306 45.5032 7.69467 45.7306 7.94944C45.958 8.20421 46.228 8.40071 46.5406 8.53894C46.8545 8.67718 47.1991 8.74687 47.5757 8.74687Z" fill="white"/>
<path d="M56.9348 10.7612V0.986328H62.8241V2.98905H59.3033V4.86154H62.5541V6.86426H59.3033L59.2986 10.7623H56.9336L56.9348 10.7612Z" fill="white"/>
<path d="M67.1113 10.7612V0.986328H73.0006V2.98905H69.4751V4.86154H72.7306V6.86426H69.4751V10.7623H67.1113V10.7612Z" fill="white"/>
</g>
<defs>
<clipPath id="clip0_31_1191">
<rect width="73" height="13" fill="white" transform="translate(0 0.807617)"/>
</clipPath>
</defs>
</svg>
