<?xml version="1.0" encoding="utf-8"?>
<!-- Generator: Adobe Illustrator 26.3.1, SVG Export Plug-In . SVG Version: 6.00 Build 0)  -->
<svg version="1.1" xmlns="http://www.w3.org/2000/svg" xmlns:xlink="http://www.w3.org/1999/xlink" x="0px" y="0px"
	 viewBox="0 0 945.7 885" style="enable-background:new 0 0 945.7 885;" xml:space="preserve">
<style type="text/css">
	.st0{fill:#010101;}
	.st1{fill:#FFFFFF;stroke:#14223F;stroke-width:8;stroke-miterlimit:10;}
	.st2{fill:#14223F;stroke:#14223F;stroke-width:8;stroke-miterlimit:10;}
	.st3{fill:none;stroke:#4890CD;stroke-miterlimit:10;}
	.st4{fill:none;stroke:#4890CD;stroke-width:1.125;stroke-miterlimit:10;}
	.st5{fill:none;stroke:#4890CD;stroke-width:30;stroke-miterlimit:10;}
	.st6{fill:none;}
	.st7{fill:none;stroke:#4890CD;stroke-width:0.9967;stroke-miterlimit:10;}
	.st8{fill:none;stroke:#47C8F5;stroke-width:0.5;stroke-miterlimit:10;}
	.st9{opacity:0.3;fill:#47C8F5;}
	.st10{fill:none;stroke:#4890CD;stroke-width:0.5;stroke-miterlimit:10;}
</style>
<g id="_Black_background">
	<rect x="2377.5" y="-150" class="st0" width="1200" height="1200"/>
</g>
<g id="Wazer_outline">
</g>
<g id="Wazer_black_on_grid">
</g>
<g id="Wazer_black_1_">
	<g>
		<path class="st1" d="M489.7,660.6l-61.3,0c-6.8-34.3-37.1-60.2-73.4-60.2c-26.6,0-49.9,13.4-63.2,34.2c0,0,0,0.5,0,0.5
			c-22.4-11.4-42.8-26.7-60.6-44.7c-21.1-21.3-32.6-40.9-37.8-53.2c13.7-3.4,26.1-10.5,35.9-20.9c13-13.8,20-32.5,20-51.3v-44.6
			c0-53.1,17.7-105,50.4-146.9c46.7-59.9,115.8-93.4,190-93.4c63.9,0,124.1,25,169.5,70.4s70.4,105.6,70.4,169.5
			c0,64.1-25,124.4-70.3,169.7C615,634.1,554.3,660.6,489.7,660.6z"/>
		<g>
			<path class="st2" d="M759.4,420.2c0-71.9-28.1-139.6-79.1-190.6c-51-51-118.7-79.1-190.6-79.1c-82.9,0-160,37.1-212.5,103.6
				c-37.7,47.7-57.7,106.9-57.7,167.7v43.6c0,22.3-15.8,43.4-46.3,45.2c-7.3,0.4-13.4,5.8-13.8,13.1c-1.1,20.3,20.6,57.7,50.5,87.9
				c20.8,21,44.6,38.2,70.9,51.2c-0.7,4.1-1.1,8.4-1.1,12.8c0,41.4,33.6,75,75,75c36.4,0,66.8-25.5,73.6-60l62.9,0
				c8.4,42.3,52.3,71.4,99.4,55.6c41.1-13.8,58.8-60.5,44-98.2c16.4-10.5,31.7-22.8,45.8-36.9C731.4,560,759.4,492.2,759.4,420.2z
				 M489.7,660.6l-61.3,0c-6.8-34.3-37.1-60.2-73.4-60.2c-26.6,0-49.9,13.4-63.2,34.2c0,0,0,0.5,0,0.5
				c-22.4-11.4-42.8-26.7-60.6-44.7c-21.1-21.3-32.6-40.9-37.8-53.2c13.7-3.4,26.1-10.5,35.9-20.9c13-13.8,20-32.5,20-51.3v-44.6
				c0-53.1,17.7-105,50.4-146.9c46.7-59.9,115.8-93.4,190-93.4c63.9,0,124.1,25,169.5,70.4s70.4,105.6,70.4,169.5
				c0,64.1-25,124.4-70.3,169.7C615,634.1,554.3,660.6,489.7,660.6z"/>
			<ellipse class="st2" cx="609.5" cy="360.3" rx="30" ry="30"/>
			<ellipse class="st2" cx="429.4" cy="360.3" rx="30" ry="30"/>
			<path class="st2" d="M438.6,458.6c-2.5-5.2-7.9-8.5-13.7-8.5h0c-10.9,0-18.2,11.3-13.6,21.2c19.2,40.7,60.6,68.8,108.5,68.8
				c48,0,89.3-28.2,108.5-68.8c4.6-9.8-2.7-21.2-13.6-21.2h-0.4c-5.7,0-10.8,3.4-13.3,8.5c-14.5,30.4-45.5,51.5-81.3,51.5
				C484.1,510.1,453.1,489,438.6,458.6z"/>
		</g>
	</g>
</g>
<g id="grid2">
	<circle class="st3" cx="1659.5" cy="420" r="240"/>
	<circle class="st4" cx="1659.5" cy="420" r="270"/>
	<path class="st5" d="M1719.1,658.5"/>
	<path class="st6" d="M1824.5,600c21.2,0,40.3,8.8,53.9,22.9c14.6-9.3,28.4-20.4,41-32.9c45.4-45.4,70.4-105.8,70.4-170
		c0-64-25-124.3-70.5-169.8s-105.8-70.5-169.8-70.5c-64.2,0-124.6,25-170,70.4c-45.4,45.4-70.4,105.8-70.4,170v45
		c0,18.8-7.5,37.5-20.6,51.3c-9.8,10.4-22.2,17.5-36,20.9c5.3,12.3,16.8,31.9,37.9,53.3c19.9,20.1,43,36.3,68.5,48.1
		c31,14.3,64.8,21.6,100.5,21.7l90,0.1c0.5,0,1,0,1.5,0C1757.7,625.9,1788.1,600,1824.5,600z"/>
	<circle class="st3" cx="1434.5" cy="464.8" r="75"/>
	<circle class="st3" cx="1434.5" cy="525" r="15"/>
	<circle class="st4" cx="1434.5" cy="465" r="45"/>
	<circle class="st3" cx="1749.5" cy="420" r="240"/>
	<circle class="st4" cx="1749.5" cy="420" r="270"/>
	<circle class="st7" cx="1614.6" cy="674.8" r="75"/>
	<circle class="st7" cx="1824.4" cy="674.8" r="75"/>
	<circle class="st3" cx="1869.5" cy="359.8" r="30"/>
	<circle class="st3" cx="1779.6" cy="419.8" r="120"/>
	<circle class="st3" cx="1689.2" cy="359.8" r="30"/>
</g>
<g id="grid1">
	<g>
		<g>
			<rect x="1989.5" y="150" class="st8" width="30" height="30"/>
			<rect x="1989.5" y="180" class="st8" width="30" height="30"/>
			<rect x="1989.5" y="210" class="st8" width="30" height="30"/>
			<rect x="1989.5" y="240" class="st8" width="30" height="30"/>
			<rect x="1989.5" y="270" class="st8" width="30" height="30"/>
			<rect x="1989.5" y="300" class="st8" width="30" height="30"/>
			<rect x="1989.5" y="330" class="st8" width="30" height="30"/>
			<rect x="1989.5" y="360" class="st8" width="30" height="30"/>
			<rect x="1989.5" y="390" class="st8" width="30" height="30"/>
			<rect x="1989.5" y="420" class="st8" width="30" height="30"/>
			<rect x="1989.5" y="450" class="st8" width="30" height="30"/>
			<rect x="1989.5" y="480" class="st8" width="30" height="30"/>
			<rect x="1989.5" y="510" class="st8" width="30" height="30"/>
			<rect x="1989.5" y="540" class="st8" width="30" height="30"/>
			<rect x="1989.5" y="570" class="st8" width="30" height="30"/>
			<rect x="1989.5" y="600" class="st8" width="30" height="30"/>
			<rect x="1989.5" y="630" class="st8" width="30" height="30"/>
			<rect x="1989.5" y="660" class="st8" width="30" height="30"/>
			<rect x="1989.5" y="690" class="st8" width="30" height="30"/>
			<rect x="1989.5" y="720" class="st8" width="30" height="30"/>
		</g>
		<g>
			<rect x="1959.5" y="150" class="st8" width="30" height="30"/>
			<rect x="1959.5" y="180" class="st8" width="30" height="30"/>
			<rect x="1959.5" y="210" class="st8" width="30" height="30"/>
			<rect x="1959.5" y="240" class="st8" width="30" height="30"/>
			<rect x="1959.5" y="270" class="st8" width="30" height="30"/>
			<rect x="1959.5" y="300" class="st8" width="30" height="30"/>
			<rect x="1959.5" y="330" class="st8" width="30" height="30"/>
			<rect x="1959.5" y="360" class="st8" width="30" height="30"/>
			<rect x="1959.5" y="390" class="st8" width="30" height="30"/>
			<rect x="1959.5" y="420" class="st8" width="30" height="30"/>
			<rect x="1959.5" y="450" class="st8" width="30" height="30"/>
			<rect x="1959.5" y="480" class="st8" width="30" height="30"/>
			<rect x="1959.5" y="510" class="st8" width="30" height="30"/>
			<rect x="1959.5" y="540" class="st8" width="30" height="30"/>
			<rect x="1959.5" y="570" class="st8" width="30" height="30"/>
			<rect x="1959.5" y="600" class="st8" width="30" height="30"/>
			<rect x="1959.5" y="630" class="st8" width="30" height="30"/>
			<rect x="1959.5" y="660" class="st8" width="30" height="30"/>
			<rect x="1959.5" y="690" class="st8" width="30" height="30"/>
			<rect x="1959.5" y="720" class="st8" width="30" height="30"/>
		</g>
		<g>
			<rect x="1929.5" y="150" class="st8" width="30" height="30"/>
			<rect x="1929.5" y="180" class="st8" width="30" height="30"/>
			<rect x="1929.5" y="210" class="st8" width="30" height="30"/>
			<rect x="1929.5" y="240" class="st8" width="30" height="30"/>
			<rect x="1929.5" y="270" class="st8" width="30" height="30"/>
			<rect x="1929.5" y="300" class="st8" width="30" height="30"/>
			<rect x="1929.5" y="330" class="st8" width="30" height="30"/>
			<rect x="1929.5" y="360" class="st8" width="30" height="30"/>
			<rect x="1929.5" y="390" class="st8" width="30" height="30"/>
			<rect x="1929.5" y="420" class="st8" width="30" height="30"/>
			<rect x="1929.5" y="450" class="st8" width="30" height="30"/>
			<rect x="1929.5" y="480" class="st8" width="30" height="30"/>
			<rect x="1929.5" y="510" class="st8" width="30" height="30"/>
			<rect x="1929.5" y="540" class="st8" width="30" height="30"/>
			<rect x="1929.5" y="570" class="st8" width="30" height="30"/>
			<rect x="1929.5" y="600" class="st8" width="30" height="30"/>
			<rect x="1929.5" y="630" class="st8" width="30" height="30"/>
			<rect x="1929.5" y="660" class="st8" width="30" height="30"/>
			<rect x="1929.5" y="690" class="st8" width="30" height="30"/>
			<rect x="1929.5" y="720" class="st8" width="30" height="30"/>
		</g>
		<g>
			<rect x="1899.5" y="150" class="st8" width="30" height="30"/>
			<rect x="1899.5" y="180" class="st8" width="30" height="30"/>
			<rect x="1899.5" y="210" class="st8" width="30" height="30"/>
			<rect x="1899.5" y="240" class="st8" width="30" height="30"/>
			<rect x="1899.5" y="270" class="st8" width="30" height="30"/>
			<rect x="1899.5" y="300" class="st8" width="30" height="30"/>
			<rect x="1899.5" y="330" class="st8" width="30" height="30"/>
			<rect x="1899.5" y="360" class="st8" width="30" height="30"/>
			<rect x="1899.5" y="390" class="st8" width="30" height="30"/>
			<rect x="1899.5" y="420" class="st8" width="30" height="30"/>
			<rect x="1899.5" y="450" class="st8" width="30" height="30"/>
			<rect x="1899.5" y="480" class="st8" width="30" height="30"/>
			<rect x="1899.5" y="510" class="st8" width="30" height="30"/>
			<rect x="1899.5" y="540" class="st8" width="30" height="30"/>
			<rect x="1899.5" y="570" class="st8" width="30" height="30"/>
			<rect x="1899.5" y="600" class="st8" width="30" height="30"/>
			<rect x="1899.5" y="630" class="st8" width="30" height="30"/>
			<rect x="1899.5" y="660" class="st8" width="30" height="30"/>
			<rect x="1899.5" y="690" class="st8" width="30" height="30"/>
			<rect x="1899.5" y="720" class="st8" width="30" height="30"/>
		</g>
		<g>
			<rect x="1869.5" y="150" class="st8" width="30" height="30"/>
			<rect x="1869.5" y="180" class="st8" width="30" height="30"/>
			<rect x="1869.5" y="210" class="st8" width="30" height="30"/>
			<rect x="1869.5" y="240" class="st8" width="30" height="30"/>
			<rect x="1869.5" y="270" class="st8" width="30" height="30"/>
			<rect x="1869.5" y="300" class="st8" width="30" height="30"/>
			<rect x="1869.5" y="330" class="st8" width="30" height="30"/>
			<rect x="1869.5" y="360" class="st8" width="30" height="30"/>
			<rect x="1869.5" y="390" class="st8" width="30" height="30"/>
			<rect x="1869.5" y="420" class="st8" width="30" height="30"/>
			<rect x="1869.5" y="450" class="st8" width="30" height="30"/>
			<rect x="1869.5" y="480" class="st8" width="30" height="30"/>
			<rect x="1869.5" y="510" class="st8" width="30" height="30"/>
			<rect x="1869.5" y="540" class="st8" width="30" height="30"/>
			<rect x="1869.5" y="570" class="st8" width="30" height="30"/>
			<rect x="1869.5" y="600" class="st8" width="30" height="30"/>
			<rect x="1869.5" y="630" class="st8" width="30" height="30"/>
			<rect x="1869.5" y="660" class="st8" width="30" height="30"/>
			<rect x="1869.5" y="690" class="st8" width="30" height="30"/>
			<rect x="1869.5" y="720" class="st8" width="30" height="30"/>
		</g>
		<g>
			<rect x="1839.5" y="150" class="st8" width="30" height="30"/>
			<rect x="1839.5" y="180" class="st8" width="30" height="30"/>
			<rect x="1839.5" y="210" class="st8" width="30" height="30"/>
			<rect x="1839.5" y="240" class="st8" width="30" height="30"/>
			<rect x="1839.5" y="270" class="st8" width="30" height="30"/>
			<rect x="1839.5" y="300" class="st8" width="30" height="30"/>
			<rect x="1839.5" y="330" class="st8" width="30" height="30"/>
			<rect x="1839.5" y="360" class="st8" width="30" height="30"/>
			<rect x="1839.5" y="390" class="st8" width="30" height="30"/>
			<rect x="1839.5" y="420" class="st8" width="30" height="30"/>
			<rect x="1839.5" y="450" class="st8" width="30" height="30"/>
			<rect x="1839.5" y="480" class="st8" width="30" height="30"/>
			<rect x="1839.5" y="510" class="st8" width="30" height="30"/>
			<rect x="1839.5" y="540" class="st8" width="30" height="30"/>
			<rect x="1839.5" y="570" class="st8" width="30" height="30"/>
			<rect x="1839.5" y="600" class="st8" width="30" height="30"/>
			<rect x="1839.5" y="630" class="st8" width="30" height="30"/>
			<rect x="1839.5" y="660" class="st8" width="30" height="30"/>
			<rect x="1839.5" y="690" class="st8" width="30" height="30"/>
			<rect x="1839.5" y="720" class="st8" width="30" height="30"/>
		</g>
		<g>
			<rect x="1809.5" y="150" class="st8" width="30" height="30"/>
			<rect x="1809.5" y="180" class="st8" width="30" height="30"/>
			<rect x="1809.5" y="210" class="st8" width="30" height="30"/>
			<rect x="1809.5" y="240" class="st8" width="30" height="30"/>
			<rect x="1809.5" y="270" class="st8" width="30" height="30"/>
			<rect x="1809.5" y="300" class="st8" width="30" height="30"/>
			<rect x="1809.5" y="330" class="st8" width="30" height="30"/>
			<rect x="1809.5" y="360" class="st8" width="30" height="30"/>
			<rect x="1809.5" y="390" class="st8" width="30" height="30"/>
			<rect x="1809.5" y="420" class="st8" width="30" height="30"/>
			<rect x="1809.5" y="450" class="st8" width="30" height="30"/>
			<rect x="1809.5" y="480" class="st8" width="30" height="30"/>
			<rect x="1809.5" y="510" class="st8" width="30" height="30"/>
			<rect x="1809.5" y="540" class="st8" width="30" height="30"/>
			<rect x="1809.5" y="570" class="st8" width="30" height="30"/>
			<rect x="1809.5" y="600" class="st8" width="30" height="30"/>
			<rect x="1809.5" y="630" class="st8" width="30" height="30"/>
			<rect x="1809.5" y="660" class="st8" width="30" height="30"/>
			<rect x="1809.5" y="690" class="st8" width="30" height="30"/>
			<rect x="1809.5" y="720" class="st8" width="30" height="30"/>
		</g>
		<g>
			<rect x="1779.5" y="150" class="st8" width="30" height="30"/>
			<rect x="1779.5" y="180" class="st8" width="30" height="30"/>
			<rect x="1779.5" y="210" class="st8" width="30" height="30"/>
			<rect x="1779.5" y="240" class="st8" width="30" height="30"/>
			<rect x="1779.5" y="270" class="st8" width="30" height="30"/>
			<rect x="1779.5" y="300" class="st8" width="30" height="30"/>
			<rect x="1779.5" y="330" class="st8" width="30" height="30"/>
			<rect x="1779.5" y="360" class="st8" width="30" height="30"/>
			<rect x="1779.5" y="390" class="st8" width="30" height="30"/>
			<rect x="1779.5" y="420" class="st8" width="30" height="30"/>
			<rect x="1779.5" y="450" class="st8" width="30" height="30"/>
			<rect x="1779.5" y="480" class="st8" width="30" height="30"/>
			<rect x="1779.5" y="510" class="st8" width="30" height="30"/>
			<rect x="1779.5" y="540" class="st8" width="30" height="30"/>
			<rect x="1779.5" y="570" class="st8" width="30" height="30"/>
			<rect x="1779.5" y="600" class="st8" width="30" height="30"/>
			<rect x="1779.5" y="630" class="st8" width="30" height="30"/>
			<rect x="1779.5" y="660" class="st8" width="30" height="30"/>
			<rect x="1779.5" y="690" class="st8" width="30" height="30"/>
			<rect x="1779.5" y="720" class="st8" width="30" height="30"/>
		</g>
		<g>
			<rect x="1749.5" y="150" class="st8" width="30" height="30"/>
			<rect x="1749.5" y="180" class="st8" width="30" height="30"/>
			<rect x="1749.5" y="210" class="st8" width="30" height="30"/>
			<rect x="1749.5" y="240" class="st8" width="30" height="30"/>
			<rect x="1749.5" y="270" class="st8" width="30" height="30"/>
			<rect x="1749.5" y="300" class="st8" width="30" height="30"/>
			<rect x="1749.5" y="330" class="st8" width="30" height="30"/>
			<rect x="1749.5" y="360" class="st8" width="30" height="30"/>
			<rect x="1749.5" y="390" class="st8" width="30" height="30"/>
			<rect x="1749.5" y="420" class="st8" width="30" height="30"/>
			<rect x="1749.5" y="450" class="st8" width="30" height="30"/>
			<rect x="1749.5" y="480" class="st8" width="30" height="30"/>
			<rect x="1749.5" y="510" class="st8" width="30" height="30"/>
			<rect x="1749.5" y="540" class="st8" width="30" height="30"/>
			<rect x="1749.5" y="570" class="st8" width="30" height="30"/>
			<rect x="1749.5" y="600" class="st8" width="30" height="30"/>
			<rect x="1749.5" y="630" class="st8" width="30" height="30"/>
			<rect x="1749.5" y="660" class="st8" width="30" height="30"/>
			<rect x="1749.5" y="690" class="st8" width="30" height="30"/>
			<rect x="1749.5" y="720" class="st8" width="30" height="30"/>
		</g>
		<g>
			<rect x="1719.5" y="150" class="st8" width="30" height="30"/>
			<rect x="1719.5" y="180" class="st8" width="30" height="30"/>
			<rect x="1719.5" y="210" class="st8" width="30" height="30"/>
			<rect x="1719.5" y="240" class="st8" width="30" height="30"/>
			<rect x="1719.5" y="270" class="st8" width="30" height="30"/>
			<rect x="1719.5" y="300" class="st8" width="30" height="30"/>
			<rect x="1719.5" y="330" class="st8" width="30" height="30"/>
			<rect x="1719.5" y="360" class="st8" width="30" height="30"/>
			<rect x="1719.5" y="390" class="st8" width="30" height="30"/>
			<rect x="1719.5" y="420" class="st8" width="30" height="30"/>
			<rect x="1719.5" y="450" class="st8" width="30" height="30"/>
			<rect x="1719.5" y="480" class="st8" width="30" height="30"/>
			<rect x="1719.5" y="510" class="st8" width="30" height="30"/>
			<rect x="1719.5" y="540" class="st8" width="30" height="30"/>
			<rect x="1719.5" y="570" class="st8" width="30" height="30"/>
			<rect x="1719.5" y="600" class="st8" width="30" height="30"/>
			<rect x="1719.5" y="630" class="st8" width="30" height="30"/>
			<rect x="1719.5" y="660" class="st8" width="30" height="30"/>
			<rect x="1719.5" y="690" class="st8" width="30" height="30"/>
			<rect x="1719.5" y="720" class="st8" width="30" height="30"/>
		</g>
		<g>
			<rect x="1689.5" y="150" class="st8" width="30" height="30"/>
			<rect x="1689.5" y="180" class="st8" width="30" height="30"/>
			<rect x="1689.5" y="210" class="st8" width="30" height="30"/>
			<rect x="1689.5" y="240" class="st8" width="30" height="30"/>
			<rect x="1689.5" y="270" class="st8" width="30" height="30"/>
			<rect x="1689.5" y="300" class="st8" width="30" height="30"/>
			<rect x="1689.5" y="330" class="st8" width="30" height="30"/>
			<rect x="1689.5" y="360" class="st8" width="30" height="30"/>
			<rect x="1689.5" y="390" class="st8" width="30" height="30"/>
			<rect x="1689.5" y="420" class="st8" width="30" height="30"/>
			<rect x="1689.5" y="450" class="st8" width="30" height="30"/>
			<rect x="1689.5" y="480" class="st8" width="30" height="30"/>
			<rect x="1689.5" y="510" class="st8" width="30" height="30"/>
			<rect x="1689.5" y="540" class="st8" width="30" height="30"/>
			<rect x="1689.5" y="570" class="st8" width="30" height="30"/>
			<rect x="1689.5" y="600" class="st8" width="30" height="30"/>
			<rect x="1689.5" y="630" class="st8" width="30" height="30"/>
			<rect x="1689.5" y="660" class="st8" width="30" height="30"/>
			<rect x="1689.5" y="690" class="st8" width="30" height="30"/>
			<rect x="1689.5" y="720" class="st8" width="30" height="30"/>
		</g>
		<g>
			<rect x="1659.5" y="150" class="st8" width="30" height="30"/>
			<rect x="1659.5" y="180" class="st8" width="30" height="30"/>
			<rect x="1659.5" y="210" class="st8" width="30" height="30"/>
			<rect x="1659.5" y="240" class="st8" width="30" height="30"/>
			<rect x="1659.5" y="270" class="st8" width="30" height="30"/>
			<rect x="1659.5" y="300" class="st8" width="30" height="30"/>
			<rect x="1659.5" y="330" class="st8" width="30" height="30"/>
			<rect x="1659.5" y="360" class="st8" width="30" height="30"/>
			<rect x="1659.5" y="390" class="st8" width="30" height="30"/>
			<rect x="1659.5" y="420" class="st8" width="30" height="30"/>
			<rect x="1659.5" y="450" class="st8" width="30" height="30"/>
			<rect x="1659.5" y="480" class="st8" width="30" height="30"/>
			<rect x="1659.5" y="510" class="st8" width="30" height="30"/>
			<rect x="1659.5" y="540" class="st8" width="30" height="30"/>
			<rect x="1659.5" y="570" class="st8" width="30" height="30"/>
			<rect x="1659.5" y="600" class="st8" width="30" height="30"/>
			<rect x="1659.5" y="630" class="st8" width="30" height="30"/>
			<rect x="1659.5" y="660" class="st8" width="30" height="30"/>
			<rect x="1659.5" y="690" class="st8" width="30" height="30"/>
			<rect x="1659.5" y="720" class="st8" width="30" height="30"/>
		</g>
		<g>
			<rect x="1629.5" y="150" class="st8" width="30" height="30"/>
			<rect x="1629.5" y="180" class="st8" width="30" height="30"/>
			<rect x="1629.5" y="210" class="st8" width="30" height="30"/>
			<rect x="1629.5" y="240" class="st8" width="30" height="30"/>
			<rect x="1629.5" y="270" class="st8" width="30" height="30"/>
			<rect x="1629.5" y="300" class="st8" width="30" height="30"/>
			<rect x="1629.5" y="330" class="st8" width="30" height="30"/>
			<rect x="1629.5" y="360" class="st8" width="30" height="30"/>
			<rect x="1629.5" y="390" class="st8" width="30" height="30"/>
			<rect x="1629.5" y="420" class="st8" width="30" height="30"/>
			<rect x="1629.5" y="450" class="st8" width="30" height="30"/>
			<rect x="1629.5" y="480" class="st8" width="30" height="30"/>
			<rect x="1629.5" y="510" class="st8" width="30" height="30"/>
			<rect x="1629.5" y="540" class="st8" width="30" height="30"/>
			<rect x="1629.5" y="570" class="st8" width="30" height="30"/>
			<rect x="1629.5" y="600" class="st8" width="30" height="30"/>
			<rect x="1629.5" y="630" class="st8" width="30" height="30"/>
			<rect x="1629.5" y="660" class="st8" width="30" height="30"/>
			<rect x="1629.5" y="690" class="st8" width="30" height="30"/>
			<rect x="1629.5" y="720" class="st8" width="30" height="30"/>
		</g>
		<g>
			<rect x="1599.5" y="150" class="st8" width="30" height="30"/>
			<rect x="1599.5" y="180" class="st8" width="30" height="30"/>
			<rect x="1599.5" y="210" class="st8" width="30" height="30"/>
			<rect x="1599.5" y="240" class="st8" width="30" height="30"/>
			<rect x="1599.5" y="270" class="st8" width="30" height="30"/>
			<rect x="1599.5" y="300" class="st8" width="30" height="30"/>
			<rect x="1599.5" y="330" class="st8" width="30" height="30"/>
			<rect x="1599.5" y="360" class="st8" width="30" height="30"/>
			<rect x="1599.5" y="390" class="st8" width="30" height="30"/>
			<rect x="1599.5" y="420" class="st8" width="30" height="30"/>
			<rect x="1599.5" y="450" class="st8" width="30" height="30"/>
			<rect x="1599.5" y="480" class="st8" width="30" height="30"/>
			<rect x="1599.5" y="510" class="st8" width="30" height="30"/>
			<rect x="1599.5" y="540" class="st8" width="30" height="30"/>
			<rect x="1599.5" y="570" class="st8" width="30" height="30"/>
			<rect x="1599.5" y="600" class="st8" width="30" height="30"/>
			<rect x="1599.5" y="630" class="st8" width="30" height="30"/>
			<rect x="1599.5" y="660" class="st8" width="30" height="30"/>
			<rect x="1599.5" y="690" class="st8" width="30" height="30"/>
			<rect x="1599.5" y="720" class="st8" width="30" height="30"/>
		</g>
		<g>
			<rect x="1569.5" y="150" class="st8" width="30" height="30"/>
			<rect x="1569.5" y="180" class="st8" width="30" height="30"/>
			<rect x="1569.5" y="210" class="st8" width="30" height="30"/>
			<rect x="1569.5" y="240" class="st8" width="30" height="30"/>
			<rect x="1569.5" y="270" class="st8" width="30" height="30"/>
			<rect x="1569.5" y="300" class="st8" width="30" height="30"/>
			<rect x="1569.5" y="330" class="st8" width="30" height="30"/>
			<rect x="1569.5" y="360" class="st8" width="30" height="30"/>
			<rect x="1569.5" y="390" class="st8" width="30" height="30"/>
			<rect x="1569.5" y="420" class="st8" width="30" height="30"/>
			<rect x="1569.5" y="450" class="st8" width="30" height="30"/>
			<rect x="1569.5" y="480" class="st8" width="30" height="30"/>
			<rect x="1569.5" y="510" class="st8" width="30" height="30"/>
			<rect x="1569.5" y="540" class="st8" width="30" height="30"/>
			<rect x="1569.5" y="570" class="st8" width="30" height="30"/>
			<rect x="1569.5" y="600" class="st8" width="30" height="30"/>
			<rect x="1569.5" y="630" class="st8" width="30" height="30"/>
			<rect x="1569.5" y="660" class="st8" width="30" height="30"/>
			<rect x="1569.5" y="690" class="st8" width="30" height="30"/>
			<rect x="1569.5" y="720" class="st8" width="30" height="30"/>
		</g>
		<g>
			<rect x="1539.5" y="150" class="st8" width="30" height="30"/>
			<rect x="1539.5" y="180" class="st8" width="30" height="30"/>
			<rect x="1539.5" y="210" class="st8" width="30" height="30"/>
			<rect x="1539.5" y="240" class="st8" width="30" height="30"/>
			<rect x="1539.5" y="270" class="st8" width="30" height="30"/>
			<rect x="1539.5" y="300" class="st8" width="30" height="30"/>
			<rect x="1539.5" y="330" class="st8" width="30" height="30"/>
			<rect x="1539.5" y="360" class="st8" width="30" height="30"/>
			<rect x="1539.5" y="390" class="st8" width="30" height="30"/>
			<rect x="1539.5" y="420" class="st8" width="30" height="30"/>
			<rect x="1539.5" y="450" class="st8" width="30" height="30"/>
			<rect x="1539.5" y="480" class="st8" width="30" height="30"/>
			<rect x="1539.5" y="510" class="st8" width="30" height="30"/>
			<rect x="1539.5" y="540" class="st8" width="30" height="30"/>
			<rect x="1539.5" y="570" class="st8" width="30" height="30"/>
			<rect x="1539.5" y="600" class="st8" width="30" height="30"/>
			<rect x="1539.5" y="630" class="st8" width="30" height="30"/>
			<rect x="1539.5" y="660" class="st8" width="30" height="30"/>
			<rect x="1539.5" y="690" class="st8" width="30" height="30"/>
			<rect x="1539.5" y="720" class="st8" width="30" height="30"/>
		</g>
		<g>
			<rect x="1509.5" y="150" class="st8" width="30" height="30"/>
			<rect x="1509.5" y="180" class="st8" width="30" height="30"/>
			<rect x="1509.5" y="210" class="st8" width="30" height="30"/>
			<rect x="1509.5" y="240" class="st8" width="30" height="30"/>
			<rect x="1509.5" y="270" class="st8" width="30" height="30"/>
			<rect x="1509.5" y="300" class="st8" width="30" height="30"/>
			<rect x="1509.5" y="330" class="st8" width="30" height="30"/>
			<rect x="1509.5" y="360" class="st8" width="30" height="30"/>
			<rect x="1509.5" y="390" class="st8" width="30" height="30"/>
			<rect x="1509.5" y="420" class="st8" width="30" height="30"/>
			<rect x="1509.5" y="450" class="st8" width="30" height="30"/>
			<rect x="1509.5" y="480" class="st8" width="30" height="30"/>
			<rect x="1509.5" y="510" class="st8" width="30" height="30"/>
			<rect x="1509.5" y="540" class="st8" width="30" height="30"/>
			<rect x="1509.5" y="570" class="st8" width="30" height="30"/>
			<rect x="1509.5" y="600" class="st8" width="30" height="30"/>
			<rect x="1509.5" y="630" class="st8" width="30" height="30"/>
			<rect x="1509.5" y="660" class="st8" width="30" height="30"/>
			<rect x="1509.5" y="690" class="st8" width="30" height="30"/>
			<rect x="1509.5" y="720" class="st8" width="30" height="30"/>
		</g>
		<g>
			<rect x="1479.5" y="150" class="st8" width="30" height="30"/>
			<rect x="1479.5" y="180" class="st8" width="30" height="30"/>
			<rect x="1479.5" y="210" class="st8" width="30" height="30"/>
			<rect x="1479.5" y="240" class="st8" width="30" height="30"/>
			<rect x="1479.5" y="270" class="st8" width="30" height="30"/>
			<rect x="1479.5" y="300" class="st8" width="30" height="30"/>
			<rect x="1479.5" y="330" class="st8" width="30" height="30"/>
			<rect x="1479.5" y="360" class="st8" width="30" height="30"/>
			<rect x="1479.5" y="390" class="st8" width="30" height="30"/>
			<rect x="1479.5" y="420" class="st8" width="30" height="30"/>
			<rect x="1479.5" y="450" class="st8" width="30" height="30"/>
			<rect x="1479.5" y="480" class="st8" width="30" height="30"/>
			<rect x="1479.5" y="510" class="st8" width="30" height="30"/>
			<rect x="1479.5" y="540" class="st8" width="30" height="30"/>
			<rect x="1479.5" y="570" class="st8" width="30" height="30"/>
			<rect x="1479.5" y="600" class="st8" width="30" height="30"/>
			<rect x="1479.5" y="630" class="st8" width="30" height="30"/>
			<rect x="1479.5" y="660" class="st8" width="30" height="30"/>
			<rect x="1479.5" y="690" class="st8" width="30" height="30"/>
			<rect x="1479.5" y="720" class="st8" width="30" height="30"/>
		</g>
		<g>
			<rect x="1449.5" y="150" class="st8" width="30" height="30"/>
			<rect x="1449.5" y="180" class="st8" width="30" height="30"/>
			<rect x="1449.5" y="210" class="st8" width="30" height="30"/>
			<rect x="1449.5" y="240" class="st8" width="30" height="30"/>
			<rect x="1449.5" y="270" class="st8" width="30" height="30"/>
			<rect x="1449.5" y="300" class="st8" width="30" height="30"/>
			<rect x="1449.5" y="330" class="st8" width="30" height="30"/>
			<rect x="1449.5" y="360" class="st8" width="30" height="30"/>
			<rect x="1449.5" y="390" class="st8" width="30" height="30"/>
			<rect x="1449.5" y="420" class="st8" width="30" height="30"/>
			<rect x="1449.5" y="450" class="st8" width="30" height="30"/>
			<rect x="1449.5" y="480" class="st8" width="30" height="30"/>
			<rect x="1449.5" y="510" class="st8" width="30" height="30"/>
			<rect x="1449.5" y="540" class="st8" width="30" height="30"/>
			<rect x="1449.5" y="570" class="st8" width="30" height="30"/>
			<rect x="1449.5" y="600" class="st8" width="30" height="30"/>
			<rect x="1449.5" y="630" class="st8" width="30" height="30"/>
			<rect x="1449.5" y="660" class="st8" width="30" height="30"/>
			<rect x="1449.5" y="690" class="st8" width="30" height="30"/>
			<rect x="1449.5" y="720" class="st8" width="30" height="30"/>
		</g>
		<g>
			<rect x="1419.5" y="150" class="st8" width="30" height="30"/>
			<rect x="1419.5" y="180" class="st8" width="30" height="30"/>
			<rect x="1419.5" y="210" class="st8" width="30" height="30"/>
			<rect x="1419.5" y="240" class="st8" width="30" height="30"/>
			<rect x="1419.5" y="270" class="st8" width="30" height="30"/>
			<rect x="1419.5" y="300" class="st8" width="30" height="30"/>
			<rect x="1419.5" y="330" class="st8" width="30" height="30"/>
			<rect x="1419.5" y="360" class="st8" width="30" height="30"/>
			<rect x="1419.5" y="390" class="st8" width="30" height="30"/>
			<rect x="1419.5" y="420" class="st8" width="30" height="30"/>
			<rect x="1419.5" y="450" class="st8" width="30" height="30"/>
			<rect x="1419.5" y="480" class="st8" width="30" height="30"/>
			<rect x="1419.5" y="510" class="st8" width="30" height="30"/>
			<rect x="1419.5" y="540" class="st8" width="30" height="30"/>
			<rect x="1419.5" y="570" class="st8" width="30" height="30"/>
			<rect x="1419.5" y="600" class="st8" width="30" height="30"/>
			<rect x="1419.5" y="630" class="st8" width="30" height="30"/>
			<rect x="1419.5" y="660" class="st8" width="30" height="30"/>
			<rect x="1419.5" y="690" class="st8" width="30" height="30"/>
			<rect x="1419.5" y="720" class="st8" width="30" height="30"/>
		</g>
	</g>
</g>
<g id="grid">
	
		<rect x="1119.5" y="750" transform="matrix(-1 -1.224647e-16 1.224647e-16 -1 3439.009 1800.0079)" class="st9" width="1200" height="300"/>
	
		<rect x="1119.5" y="-150" transform="matrix(-1 -1.224647e-16 1.224647e-16 -1 3439.009 2.029568e-12)" class="st9" width="1200" height="300"/>
	
		<rect x="669.3" y="300" transform="matrix(-1.836970e-16 1 -1 -1.836970e-16 1719.3499 -819.394)" class="st9" width="1200" height="300"/>
	
		<rect x="1569.5" y="300" transform="matrix(-1.836970e-16 1 -1 -1.836970e-16 2619.4604 -1719.5045)" class="st9" width="1200" height="300"/>
	<g>
		<g>
			<g>
				
					<rect x="1119.5" y="750" transform="matrix(6.123234e-17 -1 1 6.123234e-17 369.4785 1899.4865)" class="st10" width="30" height="30"/>
				
					<rect x="1149.5" y="750" transform="matrix(6.123234e-17 -1 1 6.123234e-17 399.4785 1929.4865)" class="st10" width="30" height="30"/>
				
					<rect x="1179.5" y="750" transform="matrix(6.123234e-17 -1 1 6.123234e-17 429.4785 1959.4865)" class="st10" width="30" height="30"/>
				
					<rect x="1209.5" y="750" transform="matrix(6.123234e-17 -1 1 6.123234e-17 459.4785 1989.4865)" class="st10" width="30" height="30"/>
				
					<rect x="1239.5" y="750" transform="matrix(6.123234e-17 -1 1 6.123234e-17 489.4785 2019.4865)" class="st10" width="30" height="30"/>
			</g>
			<g>
				
					<rect x="1119.5" y="780" transform="matrix(6.123234e-17 -1 1 6.123234e-17 339.4785 1929.4865)" class="st10" width="30" height="30"/>
				
					<rect x="1149.5" y="780" transform="matrix(6.123234e-17 -1 1 6.123234e-17 369.4785 1959.4865)" class="st10" width="30" height="30"/>
				
					<rect x="1179.5" y="780" transform="matrix(6.123234e-17 -1 1 6.123234e-17 399.4785 1989.4865)" class="st10" width="30" height="30"/>
				
					<rect x="1209.5" y="780" transform="matrix(6.123234e-17 -1 1 6.123234e-17 429.4785 2019.4865)" class="st10" width="30" height="30"/>
				
					<rect x="1239.5" y="780" transform="matrix(6.123234e-17 -1 1 6.123234e-17 459.4785 2049.4863)" class="st10" width="30" height="30"/>
			</g>
			<g>
				
					<rect x="1119.5" y="810" transform="matrix(6.123234e-17 -1 1 6.123234e-17 309.4785 1959.4865)" class="st10" width="30" height="30"/>
				
					<rect x="1149.5" y="810" transform="matrix(6.123234e-17 -1 1 6.123234e-17 339.4785 1989.4865)" class="st10" width="30" height="30"/>
				
					<rect x="1179.5" y="810" transform="matrix(6.123234e-17 -1 1 6.123234e-17 369.4785 2019.4865)" class="st10" width="30" height="30"/>
				
					<rect x="1209.5" y="810" transform="matrix(6.123234e-17 -1 1 6.123234e-17 399.4785 2049.4863)" class="st10" width="30" height="30"/>
				
					<rect x="1239.5" y="810" transform="matrix(6.123234e-17 -1 1 6.123234e-17 429.4785 2079.4863)" class="st10" width="30" height="30"/>
			</g>
			<g>
				
					<rect x="1119.5" y="840" transform="matrix(6.123234e-17 -1 1 6.123234e-17 279.4785 1989.4865)" class="st10" width="30" height="30"/>
				
					<rect x="1149.5" y="840" transform="matrix(6.123234e-17 -1 1 6.123234e-17 309.4785 2019.4865)" class="st10" width="30" height="30"/>
				
					<rect x="1179.5" y="840" transform="matrix(6.123234e-17 -1 1 6.123234e-17 339.4785 2049.4863)" class="st10" width="30" height="30"/>
				
					<rect x="1209.5" y="840" transform="matrix(6.123234e-17 -1 1 6.123234e-17 369.4785 2079.4863)" class="st10" width="30" height="30"/>
				
					<rect x="1239.5" y="840" transform="matrix(6.123234e-17 -1 1 6.123234e-17 399.4785 2109.4863)" class="st10" width="30" height="30"/>
			</g>
			<g>
				
					<rect x="1119.5" y="870" transform="matrix(6.123234e-17 -1 1 6.123234e-17 249.4785 2019.4865)" class="st10" width="30" height="30"/>
				
					<rect x="1149.5" y="870" transform="matrix(6.123234e-17 -1 1 6.123234e-17 279.4785 2049.4863)" class="st10" width="30" height="30"/>
				
					<rect x="1179.5" y="870" transform="matrix(6.123234e-17 -1 1 6.123234e-17 309.4785 2079.4863)" class="st10" width="30" height="30"/>
				
					<rect x="1209.5" y="870" transform="matrix(6.123234e-17 -1 1 6.123234e-17 339.4785 2109.4863)" class="st10" width="30" height="30"/>
				
					<rect x="1239.5" y="870" transform="matrix(6.123234e-17 -1 1 6.123234e-17 369.4785 2139.4863)" class="st10" width="30" height="30"/>
			</g>
		</g>
		<g>
			<g>
				
					<rect x="1119.5" y="900" transform="matrix(6.123234e-17 -1 1 6.123234e-17 219.4785 2049.4863)" class="st10" width="30" height="30"/>
				
					<rect x="1149.5" y="900" transform="matrix(6.123234e-17 -1 1 6.123234e-17 249.4785 2079.4863)" class="st10" width="30" height="30"/>
				
					<rect x="1179.5" y="900" transform="matrix(6.123234e-17 -1 1 6.123234e-17 279.4785 2109.4863)" class="st10" width="30" height="30"/>
				
					<rect x="1209.5" y="900" transform="matrix(6.123234e-17 -1 1 6.123234e-17 309.4785 2139.4863)" class="st10" width="30" height="30"/>
				
					<rect x="1239.5" y="900" transform="matrix(6.123234e-17 -1 1 6.123234e-17 339.4785 2169.4863)" class="st10" width="30" height="30"/>
			</g>
			<g>
				
					<rect x="1119.5" y="930" transform="matrix(6.123234e-17 -1 1 6.123234e-17 189.4785 2079.4863)" class="st10" width="30" height="30"/>
				
					<rect x="1149.5" y="930" transform="matrix(6.123234e-17 -1 1 6.123234e-17 219.4785 2109.4863)" class="st10" width="30" height="30"/>
				
					<rect x="1179.5" y="930" transform="matrix(6.123234e-17 -1 1 6.123234e-17 249.4785 2139.4863)" class="st10" width="30" height="30"/>
				
					<rect x="1209.5" y="930" transform="matrix(6.123234e-17 -1 1 6.123234e-17 279.4785 2169.4863)" class="st10" width="30" height="30"/>
				
					<rect x="1239.5" y="930" transform="matrix(6.123234e-17 -1 1 6.123234e-17 309.4785 2199.4863)" class="st10" width="30" height="30"/>
			</g>
			<g>
				
					<rect x="1119.5" y="960" transform="matrix(6.123234e-17 -1 1 6.123234e-17 159.4785 2109.4863)" class="st10" width="30" height="30"/>
				
					<rect x="1149.5" y="960" transform="matrix(6.123234e-17 -1 1 6.123234e-17 189.4785 2139.4863)" class="st10" width="30" height="30"/>
				
					<rect x="1179.5" y="960" transform="matrix(6.123234e-17 -1 1 6.123234e-17 219.4785 2169.4863)" class="st10" width="30" height="30"/>
				
					<rect x="1209.5" y="960" transform="matrix(6.123234e-17 -1 1 6.123234e-17 249.4785 2199.4863)" class="st10" width="30" height="30"/>
				
					<rect x="1239.5" y="960" transform="matrix(6.123234e-17 -1 1 6.123234e-17 279.4785 2229.4863)" class="st10" width="30" height="30"/>
			</g>
			<g>
				
					<rect x="1119.5" y="990" transform="matrix(6.123234e-17 -1 1 6.123234e-17 129.4785 2139.4863)" class="st10" width="30" height="30"/>
				
					<rect x="1149.5" y="990" transform="matrix(6.123234e-17 -1 1 6.123234e-17 159.4785 2169.4863)" class="st10" width="30" height="30"/>
				
					<rect x="1179.5" y="990" transform="matrix(6.123234e-17 -1 1 6.123234e-17 189.4785 2199.4863)" class="st10" width="30" height="30"/>
				
					<rect x="1209.5" y="990" transform="matrix(6.123234e-17 -1 1 6.123234e-17 219.4785 2229.4863)" class="st10" width="30" height="30"/>
				
					<rect x="1239.5" y="990" transform="matrix(6.123234e-17 -1 1 6.123234e-17 249.4785 2259.4863)" class="st10" width="30" height="30"/>
			</g>
			<g>
				
					<rect x="1119.5" y="1020" transform="matrix(6.123234e-17 -1 1 6.123234e-17 99.4785 2169.4863)" class="st10" width="30" height="30"/>
				
					<rect x="1149.5" y="1020" transform="matrix(6.123234e-17 -1 1 6.123234e-17 129.4785 2199.4863)" class="st10" width="30" height="30"/>
				
					<rect x="1179.5" y="1020" transform="matrix(6.123234e-17 -1 1 6.123234e-17 159.4785 2229.4863)" class="st10" width="30" height="30"/>
				
					<rect x="1209.5" y="1020" transform="matrix(6.123234e-17 -1 1 6.123234e-17 189.4785 2259.4863)" class="st10" width="30" height="30"/>
				
					<rect x="1239.5" y="1020" transform="matrix(6.123234e-17 -1 1 6.123234e-17 219.4785 2289.4863)" class="st10" width="30" height="30"/>
			</g>
		</g>
		<g>
			<g>
				
					<rect x="1269.5" y="750" transform="matrix(6.123234e-17 -1 1 6.123234e-17 519.4785 2049.4863)" class="st10" width="30" height="30"/>
				
					<rect x="1299.5" y="750" transform="matrix(6.123234e-17 -1 1 6.123234e-17 549.4785 2079.4863)" class="st10" width="30" height="30"/>
				
					<rect x="1329.5" y="750" transform="matrix(6.123234e-17 -1 1 6.123234e-17 579.4785 2109.4863)" class="st10" width="30" height="30"/>
				
					<rect x="1359.5" y="750" transform="matrix(6.123234e-17 -1 1 6.123234e-17 609.4785 2139.4863)" class="st10" width="30" height="30"/>
				
					<rect x="1389.5" y="750" transform="matrix(6.123234e-17 -1 1 6.123234e-17 639.4785 2169.4863)" class="st10" width="30" height="30"/>
			</g>
			<g>
				
					<rect x="1269.5" y="780" transform="matrix(6.123234e-17 -1 1 6.123234e-17 489.4785 2079.4863)" class="st10" width="30" height="30"/>
				
					<rect x="1299.5" y="780" transform="matrix(6.123234e-17 -1 1 6.123234e-17 519.4785 2109.4863)" class="st10" width="30" height="30"/>
				
					<rect x="1329.5" y="780" transform="matrix(6.123234e-17 -1 1 6.123234e-17 549.4785 2139.4863)" class="st10" width="30" height="30"/>
				
					<rect x="1359.5" y="780" transform="matrix(6.123234e-17 -1 1 6.123234e-17 579.4785 2169.4863)" class="st10" width="30" height="30"/>
				
					<rect x="1389.5" y="780" transform="matrix(6.123234e-17 -1 1 6.123234e-17 609.4785 2199.4863)" class="st10" width="30" height="30"/>
			</g>
			<g>
				
					<rect x="1269.5" y="810" transform="matrix(6.123234e-17 -1 1 6.123234e-17 459.4785 2109.4863)" class="st10" width="30" height="30"/>
				
					<rect x="1299.5" y="810" transform="matrix(6.123234e-17 -1 1 6.123234e-17 489.4785 2139.4863)" class="st10" width="30" height="30"/>
				
					<rect x="1329.5" y="810" transform="matrix(6.123234e-17 -1 1 6.123234e-17 519.4785 2169.4863)" class="st10" width="30" height="30"/>
				
					<rect x="1359.5" y="810" transform="matrix(6.123234e-17 -1 1 6.123234e-17 549.4785 2199.4863)" class="st10" width="30" height="30"/>
				
					<rect x="1389.5" y="810" transform="matrix(6.123234e-17 -1 1 6.123234e-17 579.4785 2229.4863)" class="st10" width="30" height="30"/>
			</g>
			<g>
				
					<rect x="1269.5" y="840" transform="matrix(6.123234e-17 -1 1 6.123234e-17 429.4785 2139.4863)" class="st10" width="30" height="30"/>
				
					<rect x="1299.5" y="840" transform="matrix(6.123234e-17 -1 1 6.123234e-17 459.4785 2169.4863)" class="st10" width="30" height="30"/>
				
					<rect x="1329.5" y="840" transform="matrix(6.123234e-17 -1 1 6.123234e-17 489.4785 2199.4863)" class="st10" width="30" height="30"/>
				
					<rect x="1359.5" y="840" transform="matrix(6.123234e-17 -1 1 6.123234e-17 519.4785 2229.4863)" class="st10" width="30" height="30"/>
				
					<rect x="1389.5" y="840" transform="matrix(6.123234e-17 -1 1 6.123234e-17 549.4785 2259.4863)" class="st10" width="30" height="30"/>
			</g>
			<g>
				
					<rect x="1269.5" y="870" transform="matrix(6.123234e-17 -1 1 6.123234e-17 399.4785 2169.4863)" class="st10" width="30" height="30"/>
				
					<rect x="1299.5" y="870" transform="matrix(6.123234e-17 -1 1 6.123234e-17 429.4785 2199.4863)" class="st10" width="30" height="30"/>
				
					<rect x="1329.5" y="870" transform="matrix(6.123234e-17 -1 1 6.123234e-17 459.4785 2229.4863)" class="st10" width="30" height="30"/>
				
					<rect x="1359.5" y="870" transform="matrix(6.123234e-17 -1 1 6.123234e-17 489.4785 2259.4863)" class="st10" width="30" height="30"/>
				
					<rect x="1389.5" y="870" transform="matrix(6.123234e-17 -1 1 6.123234e-17 519.4785 2289.4863)" class="st10" width="30" height="30"/>
			</g>
		</g>
		<g>
			<g>
				
					<rect x="1269.5" y="900" transform="matrix(6.123234e-17 -1 1 6.123234e-17 369.4785 2199.4863)" class="st10" width="30" height="30"/>
				
					<rect x="1299.5" y="900" transform="matrix(6.123234e-17 -1 1 6.123234e-17 399.4785 2229.4863)" class="st10" width="30" height="30"/>
				
					<rect x="1329.5" y="900" transform="matrix(6.123234e-17 -1 1 6.123234e-17 429.4785 2259.4863)" class="st10" width="30" height="30"/>
				
					<rect x="1359.5" y="900" transform="matrix(6.123234e-17 -1 1 6.123234e-17 459.4785 2289.4863)" class="st10" width="30" height="30"/>
				
					<rect x="1389.5" y="900" transform="matrix(6.123234e-17 -1 1 6.123234e-17 489.4785 2319.4863)" class="st10" width="30" height="30"/>
			</g>
			<g>
				
					<rect x="1269.5" y="930" transform="matrix(6.123234e-17 -1 1 6.123234e-17 339.4785 2229.4863)" class="st10" width="30" height="30"/>
				
					<rect x="1299.5" y="930" transform="matrix(6.123234e-17 -1 1 6.123234e-17 369.4785 2259.4863)" class="st10" width="30" height="30"/>
				
					<rect x="1329.5" y="930" transform="matrix(6.123234e-17 -1 1 6.123234e-17 399.4785 2289.4863)" class="st10" width="30" height="30"/>
				
					<rect x="1359.5" y="930" transform="matrix(6.123234e-17 -1 1 6.123234e-17 429.4785 2319.4863)" class="st10" width="30" height="30"/>
				
					<rect x="1389.5" y="930" transform="matrix(6.123234e-17 -1 1 6.123234e-17 459.4785 2349.4863)" class="st10" width="30" height="30"/>
			</g>
			<g>
				
					<rect x="1269.5" y="960" transform="matrix(6.123234e-17 -1 1 6.123234e-17 309.4785 2259.4863)" class="st10" width="30" height="30"/>
				
					<rect x="1299.5" y="960" transform="matrix(6.123234e-17 -1 1 6.123234e-17 339.4785 2289.4863)" class="st10" width="30" height="30"/>
				
					<rect x="1329.5" y="960" transform="matrix(6.123234e-17 -1 1 6.123234e-17 369.4785 2319.4863)" class="st10" width="30" height="30"/>
				
					<rect x="1359.5" y="960" transform="matrix(6.123234e-17 -1 1 6.123234e-17 399.4785 2349.4863)" class="st10" width="30" height="30"/>
				
					<rect x="1389.5" y="960" transform="matrix(6.123234e-17 -1 1 6.123234e-17 429.4785 2379.4863)" class="st10" width="30" height="30"/>
			</g>
			<g>
				
					<rect x="1269.5" y="990" transform="matrix(6.123234e-17 -1 1 6.123234e-17 279.4785 2289.4863)" class="st10" width="30" height="30"/>
				
					<rect x="1299.5" y="990" transform="matrix(6.123234e-17 -1 1 6.123234e-17 309.4785 2319.4863)" class="st10" width="30" height="30"/>
				
					<rect x="1329.5" y="990" transform="matrix(6.123234e-17 -1 1 6.123234e-17 339.4785 2349.4863)" class="st10" width="30" height="30"/>
				
					<rect x="1359.5" y="990" transform="matrix(6.123234e-17 -1 1 6.123234e-17 369.4785 2379.4863)" class="st10" width="30" height="30"/>
				
					<rect x="1389.5" y="990" transform="matrix(6.123234e-17 -1 1 6.123234e-17 399.4785 2409.4863)" class="st10" width="30" height="30"/>
			</g>
			<g>
				
					<rect x="1269.5" y="1020" transform="matrix(6.123234e-17 -1 1 6.123234e-17 249.4785 2319.4863)" class="st10" width="30" height="30"/>
				
					<rect x="1299.5" y="1020" transform="matrix(6.123234e-17 -1 1 6.123234e-17 279.4785 2349.4863)" class="st10" width="30" height="30"/>
				
					<rect x="1329.5" y="1020" transform="matrix(6.123234e-17 -1 1 6.123234e-17 309.4785 2379.4863)" class="st10" width="30" height="30"/>
				
					<rect x="1359.5" y="1020" transform="matrix(6.123234e-17 -1 1 6.123234e-17 339.4785 2409.4863)" class="st10" width="30" height="30"/>
				
					<rect x="1389.5" y="1020" transform="matrix(6.123234e-17 -1 1 6.123234e-17 369.4785 2439.4863)" class="st10" width="30" height="30"/>
			</g>
		</g>
	</g>
	<g>
		<g>
			<g>
				
					<rect x="2019.5" y="750" transform="matrix(6.123234e-17 -1 1 6.123234e-17 1269.4785 2799.4863)" class="st10" width="30" height="30"/>
				
					<rect x="2049.5" y="750" transform="matrix(6.123234e-17 -1 1 6.123234e-17 1299.4785 2829.4863)" class="st10" width="30" height="30"/>
				
					<rect x="2079.5" y="750" transform="matrix(6.123234e-17 -1 1 6.123234e-17 1329.4785 2859.4863)" class="st10" width="30" height="30"/>
				
					<rect x="2109.5" y="750" transform="matrix(6.123234e-17 -1 1 6.123234e-17 1359.4785 2889.4863)" class="st10" width="30" height="30"/>
				
					<rect x="2139.5" y="750" transform="matrix(6.123234e-17 -1 1 6.123234e-17 1389.4785 2919.4863)" class="st10" width="30" height="30"/>
			</g>
			<g>
				
					<rect x="2019.5" y="780" transform="matrix(6.123234e-17 -1 1 6.123234e-17 1239.4785 2829.4863)" class="st10" width="30" height="30"/>
				
					<rect x="2049.5" y="780" transform="matrix(6.123234e-17 -1 1 6.123234e-17 1269.4785 2859.4863)" class="st10" width="30" height="30"/>
				
					<rect x="2079.5" y="780" transform="matrix(6.123234e-17 -1 1 6.123234e-17 1299.4785 2889.4863)" class="st10" width="30" height="30"/>
				
					<rect x="2109.5" y="780" transform="matrix(6.123234e-17 -1 1 6.123234e-17 1329.4785 2919.4863)" class="st10" width="30" height="30"/>
				
					<rect x="2139.5" y="780" transform="matrix(6.123234e-17 -1 1 6.123234e-17 1359.4785 2949.4863)" class="st10" width="30" height="30"/>
			</g>
			<g>
				
					<rect x="2019.5" y="810" transform="matrix(6.123234e-17 -1 1 6.123234e-17 1209.4785 2859.4863)" class="st10" width="30" height="30"/>
				
					<rect x="2049.5" y="810" transform="matrix(6.123234e-17 -1 1 6.123234e-17 1239.4785 2889.4863)" class="st10" width="30" height="30"/>
				
					<rect x="2079.5" y="810" transform="matrix(6.123234e-17 -1 1 6.123234e-17 1269.4785 2919.4863)" class="st10" width="30" height="30"/>
				
					<rect x="2109.5" y="810" transform="matrix(6.123234e-17 -1 1 6.123234e-17 1299.4785 2949.4863)" class="st10" width="30" height="30"/>
				
					<rect x="2139.5" y="810" transform="matrix(6.123234e-17 -1 1 6.123234e-17 1329.4785 2979.4863)" class="st10" width="30" height="30"/>
			</g>
			<g>
				
					<rect x="2019.5" y="840" transform="matrix(6.123234e-17 -1 1 6.123234e-17 1179.4785 2889.4863)" class="st10" width="30" height="30"/>
				
					<rect x="2049.5" y="840" transform="matrix(6.123234e-17 -1 1 6.123234e-17 1209.4785 2919.4863)" class="st10" width="30" height="30"/>
				
					<rect x="2079.5" y="840" transform="matrix(6.123234e-17 -1 1 6.123234e-17 1239.4785 2949.4863)" class="st10" width="30" height="30"/>
				
					<rect x="2109.5" y="840" transform="matrix(6.123234e-17 -1 1 6.123234e-17 1269.4785 2979.4863)" class="st10" width="30" height="30"/>
				
					<rect x="2139.5" y="840" transform="matrix(6.123234e-17 -1 1 6.123234e-17 1299.4785 3009.4863)" class="st10" width="30" height="30"/>
			</g>
			<g>
				
					<rect x="2019.5" y="870" transform="matrix(6.123234e-17 -1 1 6.123234e-17 1149.4785 2919.4863)" class="st10" width="30" height="30"/>
				
					<rect x="2049.5" y="870" transform="matrix(6.123234e-17 -1 1 6.123234e-17 1179.4785 2949.4863)" class="st10" width="30" height="30"/>
				
					<rect x="2079.5" y="870" transform="matrix(6.123234e-17 -1 1 6.123234e-17 1209.4785 2979.4863)" class="st10" width="30" height="30"/>
				
					<rect x="2109.5" y="870" transform="matrix(6.123234e-17 -1 1 6.123234e-17 1239.4785 3009.4863)" class="st10" width="30" height="30"/>
				
					<rect x="2139.5" y="870" transform="matrix(6.123234e-17 -1 1 6.123234e-17 1269.4785 3039.4863)" class="st10" width="30" height="30"/>
			</g>
		</g>
		<g>
			<g>
				
					<rect x="2019.5" y="900" transform="matrix(6.123234e-17 -1 1 6.123234e-17 1119.4785 2949.4863)" class="st10" width="30" height="30"/>
				
					<rect x="2049.5" y="900" transform="matrix(6.123234e-17 -1 1 6.123234e-17 1149.4785 2979.4863)" class="st10" width="30" height="30"/>
				
					<rect x="2079.5" y="900" transform="matrix(6.123234e-17 -1 1 6.123234e-17 1179.4785 3009.4863)" class="st10" width="30" height="30"/>
				
					<rect x="2109.5" y="900" transform="matrix(6.123234e-17 -1 1 6.123234e-17 1209.4785 3039.4863)" class="st10" width="30" height="30"/>
				
					<rect x="2139.5" y="900" transform="matrix(6.123234e-17 -1 1 6.123234e-17 1239.4785 3069.4863)" class="st10" width="30" height="30"/>
			</g>
			<g>
				
					<rect x="2019.5" y="930" transform="matrix(6.123234e-17 -1 1 6.123234e-17 1089.4785 2979.4863)" class="st10" width="30" height="30"/>
				
					<rect x="2049.5" y="930" transform="matrix(6.123234e-17 -1 1 6.123234e-17 1119.4785 3009.4863)" class="st10" width="30" height="30"/>
				
					<rect x="2079.5" y="930" transform="matrix(6.123234e-17 -1 1 6.123234e-17 1149.4785 3039.4863)" class="st10" width="30" height="30"/>
				
					<rect x="2109.5" y="930" transform="matrix(6.123234e-17 -1 1 6.123234e-17 1179.4785 3069.4863)" class="st10" width="30" height="30"/>
				
					<rect x="2139.5" y="930" transform="matrix(6.123234e-17 -1 1 6.123234e-17 1209.4785 3099.4863)" class="st10" width="30" height="30"/>
			</g>
			<g>
				
					<rect x="2019.5" y="960" transform="matrix(6.123234e-17 -1 1 6.123234e-17 1059.4785 3009.4863)" class="st10" width="30" height="30"/>
				
					<rect x="2049.5" y="960" transform="matrix(6.123234e-17 -1 1 6.123234e-17 1089.4785 3039.4863)" class="st10" width="30" height="30"/>
				
					<rect x="2079.5" y="960" transform="matrix(6.123234e-17 -1 1 6.123234e-17 1119.4785 3069.4863)" class="st10" width="30" height="30"/>
				
					<rect x="2109.5" y="960" transform="matrix(6.123234e-17 -1 1 6.123234e-17 1149.4785 3099.4863)" class="st10" width="30" height="30"/>
				
					<rect x="2139.5" y="960" transform="matrix(6.123234e-17 -1 1 6.123234e-17 1179.4785 3129.4863)" class="st10" width="30" height="30"/>
			</g>
			<g>
				
					<rect x="2019.5" y="990" transform="matrix(6.123234e-17 -1 1 6.123234e-17 1029.4785 3039.4863)" class="st10" width="30" height="30"/>
				
					<rect x="2049.5" y="990" transform="matrix(6.123234e-17 -1 1 6.123234e-17 1059.4785 3069.4863)" class="st10" width="30" height="30"/>
				
					<rect x="2079.5" y="990" transform="matrix(6.123234e-17 -1 1 6.123234e-17 1089.4785 3099.4863)" class="st10" width="30" height="30"/>
				
					<rect x="2109.5" y="990" transform="matrix(6.123234e-17 -1 1 6.123234e-17 1119.4785 3129.4863)" class="st10" width="30" height="30"/>
				
					<rect x="2139.5" y="990" transform="matrix(6.123234e-17 -1 1 6.123234e-17 1149.4785 3159.4863)" class="st10" width="30" height="30"/>
			</g>
			<g>
				
					<rect x="2019.5" y="1020" transform="matrix(6.123234e-17 -1 1 6.123234e-17 999.4785 3069.4863)" class="st10" width="30" height="30"/>
				
					<rect x="2049.5" y="1020" transform="matrix(6.123234e-17 -1 1 6.123234e-17 1029.4785 3099.4863)" class="st10" width="30" height="30"/>
				
					<rect x="2079.5" y="1020" transform="matrix(6.123234e-17 -1 1 6.123234e-17 1059.4785 3129.4863)" class="st10" width="30" height="30"/>
				
					<rect x="2109.5" y="1020" transform="matrix(6.123234e-17 -1 1 6.123234e-17 1089.4785 3159.4863)" class="st10" width="30" height="30"/>
				
					<rect x="2139.5" y="1020" transform="matrix(6.123234e-17 -1 1 6.123234e-17 1119.4785 3189.4863)" class="st10" width="30" height="30"/>
			</g>
		</g>
		<g>
			<g>
				
					<rect x="2169.5" y="750" transform="matrix(6.123234e-17 -1 1 6.123234e-17 1419.4785 2949.4863)" class="st10" width="30" height="30"/>
				
					<rect x="2199.5" y="750" transform="matrix(6.123234e-17 -1 1 6.123234e-17 1449.4785 2979.4863)" class="st10" width="30" height="30"/>
				
					<rect x="2229.5" y="750" transform="matrix(6.123234e-17 -1 1 6.123234e-17 1479.4785 3009.4863)" class="st10" width="30" height="30"/>
				
					<rect x="2259.5" y="750" transform="matrix(6.123234e-17 -1 1 6.123234e-17 1509.4785 3039.4863)" class="st10" width="30" height="30"/>
				
					<rect x="2289.5" y="750" transform="matrix(6.123234e-17 -1 1 6.123234e-17 1539.4785 3069.4863)" class="st10" width="30" height="30"/>
			</g>
			<g>
				
					<rect x="2169.5" y="780" transform="matrix(6.123234e-17 -1 1 6.123234e-17 1389.4785 2979.4863)" class="st10" width="30" height="30"/>
				
					<rect x="2199.5" y="780" transform="matrix(6.123234e-17 -1 1 6.123234e-17 1419.4785 3009.4863)" class="st10" width="30" height="30"/>
				
					<rect x="2229.5" y="780" transform="matrix(6.123234e-17 -1 1 6.123234e-17 1449.4785 3039.4863)" class="st10" width="30" height="30"/>
				
					<rect x="2259.5" y="780" transform="matrix(6.123234e-17 -1 1 6.123234e-17 1479.4785 3069.4863)" class="st10" width="30" height="30"/>
				
					<rect x="2289.5" y="780" transform="matrix(6.123234e-17 -1 1 6.123234e-17 1509.4785 3099.4863)" class="st10" width="30" height="30"/>
			</g>
			<g>
				
					<rect x="2169.5" y="810" transform="matrix(6.123234e-17 -1 1 6.123234e-17 1359.4785 3009.4863)" class="st10" width="30" height="30"/>
				
					<rect x="2199.5" y="810" transform="matrix(6.123234e-17 -1 1 6.123234e-17 1389.4785 3039.4863)" class="st10" width="30" height="30"/>
				
					<rect x="2229.5" y="810" transform="matrix(6.123234e-17 -1 1 6.123234e-17 1419.4785 3069.4863)" class="st10" width="30" height="30"/>
				
					<rect x="2259.5" y="810" transform="matrix(6.123234e-17 -1 1 6.123234e-17 1449.4785 3099.4863)" class="st10" width="30" height="30"/>
				
					<rect x="2289.5" y="810" transform="matrix(6.123234e-17 -1 1 6.123234e-17 1479.4785 3129.4863)" class="st10" width="30" height="30"/>
			</g>
			<g>
				
					<rect x="2169.5" y="840" transform="matrix(6.123234e-17 -1 1 6.123234e-17 1329.4785 3039.4863)" class="st10" width="30" height="30"/>
				
					<rect x="2199.5" y="840" transform="matrix(6.123234e-17 -1 1 6.123234e-17 1359.4785 3069.4863)" class="st10" width="30" height="30"/>
				
					<rect x="2229.5" y="840" transform="matrix(6.123234e-17 -1 1 6.123234e-17 1389.4785 3099.4863)" class="st10" width="30" height="30"/>
				
					<rect x="2259.5" y="840" transform="matrix(6.123234e-17 -1 1 6.123234e-17 1419.4785 3129.4863)" class="st10" width="30" height="30"/>
				
					<rect x="2289.5" y="840" transform="matrix(6.123234e-17 -1 1 6.123234e-17 1449.4785 3159.4863)" class="st10" width="30" height="30"/>
			</g>
			<g>
				
					<rect x="2169.5" y="870" transform="matrix(6.123234e-17 -1 1 6.123234e-17 1299.4785 3069.4863)" class="st10" width="30" height="30"/>
				
					<rect x="2199.5" y="870" transform="matrix(6.123234e-17 -1 1 6.123234e-17 1329.4785 3099.4863)" class="st10" width="30" height="30"/>
				
					<rect x="2229.5" y="870" transform="matrix(6.123234e-17 -1 1 6.123234e-17 1359.4785 3129.4863)" class="st10" width="30" height="30"/>
				
					<rect x="2259.5" y="870" transform="matrix(6.123234e-17 -1 1 6.123234e-17 1389.4785 3159.4863)" class="st10" width="30" height="30"/>
				
					<rect x="2289.5" y="870" transform="matrix(6.123234e-17 -1 1 6.123234e-17 1419.4785 3189.4863)" class="st10" width="30" height="30"/>
			</g>
		</g>
		<g>
			<g>
				
					<rect x="2169.5" y="900" transform="matrix(6.123234e-17 -1 1 6.123234e-17 1269.4785 3099.4863)" class="st10" width="30" height="30"/>
				
					<rect x="2199.5" y="900" transform="matrix(6.123234e-17 -1 1 6.123234e-17 1299.4785 3129.4863)" class="st10" width="30" height="30"/>
				
					<rect x="2229.5" y="900" transform="matrix(6.123234e-17 -1 1 6.123234e-17 1329.4785 3159.4863)" class="st10" width="30" height="30"/>
				
					<rect x="2259.5" y="900" transform="matrix(6.123234e-17 -1 1 6.123234e-17 1359.4785 3189.4863)" class="st10" width="30" height="30"/>
				
					<rect x="2289.5" y="900" transform="matrix(6.123234e-17 -1 1 6.123234e-17 1389.4785 3219.4863)" class="st10" width="30" height="30"/>
			</g>
			<g>
				
					<rect x="2169.5" y="930" transform="matrix(6.123234e-17 -1 1 6.123234e-17 1239.4785 3129.4863)" class="st10" width="30" height="30"/>
				
					<rect x="2199.5" y="930" transform="matrix(6.123234e-17 -1 1 6.123234e-17 1269.4785 3159.4863)" class="st10" width="30" height="30"/>
				
					<rect x="2229.5" y="930" transform="matrix(6.123234e-17 -1 1 6.123234e-17 1299.4785 3189.4863)" class="st10" width="30" height="30"/>
				
					<rect x="2259.5" y="930" transform="matrix(6.123234e-17 -1 1 6.123234e-17 1329.4785 3219.4863)" class="st10" width="30" height="30"/>
				
					<rect x="2289.5" y="930" transform="matrix(6.123234e-17 -1 1 6.123234e-17 1359.4785 3249.4863)" class="st10" width="30" height="30"/>
			</g>
			<g>
				
					<rect x="2169.5" y="960" transform="matrix(6.123234e-17 -1 1 6.123234e-17 1209.4785 3159.4863)" class="st10" width="30" height="30"/>
				
					<rect x="2199.5" y="960" transform="matrix(6.123234e-17 -1 1 6.123234e-17 1239.4785 3189.4863)" class="st10" width="30" height="30"/>
				
					<rect x="2229.5" y="960" transform="matrix(6.123234e-17 -1 1 6.123234e-17 1269.4785 3219.4863)" class="st10" width="30" height="30"/>
				
					<rect x="2259.5" y="960" transform="matrix(6.123234e-17 -1 1 6.123234e-17 1299.4785 3249.4863)" class="st10" width="30" height="30"/>
				
					<rect x="2289.5" y="960" transform="matrix(6.123234e-17 -1 1 6.123234e-17 1329.4785 3279.4863)" class="st10" width="30" height="30"/>
			</g>
			<g>
				
					<rect x="2169.5" y="990" transform="matrix(6.123234e-17 -1 1 6.123234e-17 1179.4785 3189.4863)" class="st10" width="30" height="30"/>
				
					<rect x="2199.5" y="990" transform="matrix(6.123234e-17 -1 1 6.123234e-17 1209.4785 3219.4863)" class="st10" width="30" height="30"/>
				
					<rect x="2229.5" y="990" transform="matrix(6.123234e-17 -1 1 6.123234e-17 1239.4785 3249.4863)" class="st10" width="30" height="30"/>
				
					<rect x="2259.5" y="990" transform="matrix(6.123234e-17 -1 1 6.123234e-17 1269.4785 3279.4863)" class="st10" width="30" height="30"/>
				
					<rect x="2289.5" y="990" transform="matrix(6.123234e-17 -1 1 6.123234e-17 1299.4785 3309.4863)" class="st10" width="30" height="30"/>
			</g>
			<g>
				
					<rect x="2169.5" y="1020" transform="matrix(6.123234e-17 -1 1 6.123234e-17 1149.4785 3219.4863)" class="st10" width="30" height="30"/>
				
					<rect x="2199.5" y="1020" transform="matrix(6.123234e-17 -1 1 6.123234e-17 1179.4785 3249.4863)" class="st10" width="30" height="30"/>
				
					<rect x="2229.5" y="1020" transform="matrix(6.123234e-17 -1 1 6.123234e-17 1209.4785 3279.4863)" class="st10" width="30" height="30"/>
				
					<rect x="2259.5" y="1020" transform="matrix(6.123234e-17 -1 1 6.123234e-17 1239.4785 3309.4863)" class="st10" width="30" height="30"/>
				
					<rect x="2289.5" y="1020" transform="matrix(6.123234e-17 -1 1 6.123234e-17 1269.4785 3339.4863)" class="st10" width="30" height="30"/>
			</g>
		</g>
	</g>
	<g>
		<g>
			<g>
				
					<rect x="2019.5" y="-150" transform="matrix(6.123234e-17 -1 1 6.123234e-17 2169.4824 1899.4824)" class="st10" width="30" height="30"/>
				
					<rect x="2049.5" y="-150" transform="matrix(6.123234e-17 -1 1 6.123234e-17 2199.4824 1929.4824)" class="st10" width="30" height="30"/>
				
					<rect x="2079.5" y="-150" transform="matrix(6.123234e-17 -1 1 6.123234e-17 2229.4824 1959.4824)" class="st10" width="30" height="30"/>
				
					<rect x="2109.5" y="-150" transform="matrix(6.123234e-17 -1 1 6.123234e-17 2259.4824 1989.4824)" class="st10" width="30" height="30"/>
				
					<rect x="2139.5" y="-150" transform="matrix(6.123234e-17 -1 1 6.123234e-17 2289.4824 2019.4824)" class="st10" width="30" height="30"/>
			</g>
			<g>
				
					<rect x="2019.5" y="-120" transform="matrix(6.123234e-17 -1 1 6.123234e-17 2139.4824 1929.4824)" class="st10" width="30" height="30"/>
				
					<rect x="2049.5" y="-120" transform="matrix(6.123234e-17 -1 1 6.123234e-17 2169.4824 1959.4824)" class="st10" width="30" height="30"/>
				
					<rect x="2079.5" y="-120" transform="matrix(6.123234e-17 -1 1 6.123234e-17 2199.4824 1989.4824)" class="st10" width="30" height="30"/>
				
					<rect x="2109.5" y="-120" transform="matrix(6.123234e-17 -1 1 6.123234e-17 2229.4824 2019.4824)" class="st10" width="30" height="30"/>
				
					<rect x="2139.5" y="-120" transform="matrix(6.123234e-17 -1 1 6.123234e-17 2259.4824 2049.4824)" class="st10" width="30" height="30"/>
			</g>
			<g>
				
					<rect x="2019.5" y="-90" transform="matrix(6.123234e-17 -1 1 6.123234e-17 2109.4824 1959.4824)" class="st10" width="30" height="30"/>
				
					<rect x="2049.5" y="-90" transform="matrix(6.123234e-17 -1 1 6.123234e-17 2139.4824 1989.4824)" class="st10" width="30" height="30"/>
				
					<rect x="2079.5" y="-90" transform="matrix(6.123234e-17 -1 1 6.123234e-17 2169.4824 2019.4824)" class="st10" width="30" height="30"/>
				
					<rect x="2109.5" y="-90" transform="matrix(6.123234e-17 -1 1 6.123234e-17 2199.4824 2049.4824)" class="st10" width="30" height="30"/>
				
					<rect x="2139.5" y="-90" transform="matrix(6.123234e-17 -1 1 6.123234e-17 2229.4824 2079.4824)" class="st10" width="30" height="30"/>
			</g>
			<g>
				
					<rect x="2019.5" y="-60" transform="matrix(6.123234e-17 -1 1 6.123234e-17 2079.4824 1989.4824)" class="st10" width="30" height="30"/>
				
					<rect x="2049.5" y="-60" transform="matrix(6.123234e-17 -1 1 6.123234e-17 2109.4824 2019.4824)" class="st10" width="30" height="30"/>
				
					<rect x="2079.5" y="-60" transform="matrix(6.123234e-17 -1 1 6.123234e-17 2139.4824 2049.4824)" class="st10" width="30" height="30"/>
				
					<rect x="2109.5" y="-60" transform="matrix(6.123234e-17 -1 1 6.123234e-17 2169.4824 2079.4824)" class="st10" width="30" height="30"/>
				
					<rect x="2139.5" y="-60" transform="matrix(6.123234e-17 -1 1 6.123234e-17 2199.4824 2109.4824)" class="st10" width="30" height="30"/>
			</g>
			<g>
				
					<rect x="2019.5" y="-30" transform="matrix(6.123234e-17 -1 1 6.123234e-17 2049.4824 2019.4824)" class="st10" width="30" height="30"/>
				
					<rect x="2049.5" y="-30" transform="matrix(6.123234e-17 -1 1 6.123234e-17 2079.4824 2049.4824)" class="st10" width="30" height="30"/>
				
					<rect x="2079.5" y="-30" transform="matrix(6.123234e-17 -1 1 6.123234e-17 2109.4824 2079.4824)" class="st10" width="30" height="30"/>
				
					<rect x="2109.5" y="-30" transform="matrix(6.123234e-17 -1 1 6.123234e-17 2139.4824 2109.4824)" class="st10" width="30" height="30"/>
				
					<rect x="2139.5" y="-30" transform="matrix(6.123234e-17 -1 1 6.123234e-17 2169.4824 2139.4824)" class="st10" width="30" height="30"/>
			</g>
		</g>
		<g>
			<g>
				
					<rect x="2019.5" transform="matrix(6.123234e-17 -1 1 6.123234e-17 2019.4824 2049.4824)" class="st10" width="30" height="30"/>
				
					<rect x="2049.5" transform="matrix(6.123234e-17 -1 1 6.123234e-17 2049.4824 2079.4824)" class="st10" width="30" height="30"/>
				
					<rect x="2079.5" transform="matrix(6.123234e-17 -1 1 6.123234e-17 2079.4824 2109.4824)" class="st10" width="30" height="30"/>
				
					<rect x="2109.5" transform="matrix(6.123234e-17 -1 1 6.123234e-17 2109.4824 2139.4824)" class="st10" width="30" height="30"/>
				
					<rect x="2139.5" transform="matrix(6.123234e-17 -1 1 6.123234e-17 2139.4824 2169.4824)" class="st10" width="30" height="30"/>
			</g>
			<g>
				
					<rect x="2019.5" y="30" transform="matrix(6.123234e-17 -1 1 6.123234e-17 1989.4824 2079.4824)" class="st10" width="30" height="30"/>
				
					<rect x="2049.5" y="30" transform="matrix(6.123234e-17 -1 1 6.123234e-17 2019.4824 2109.4824)" class="st10" width="30" height="30"/>
				
					<rect x="2079.5" y="30" transform="matrix(6.123234e-17 -1 1 6.123234e-17 2049.4824 2139.4824)" class="st10" width="30" height="30"/>
				
					<rect x="2109.5" y="30" transform="matrix(6.123234e-17 -1 1 6.123234e-17 2079.4824 2169.4824)" class="st10" width="30" height="30"/>
				
					<rect x="2139.5" y="30" transform="matrix(6.123234e-17 -1 1 6.123234e-17 2109.4824 2199.4824)" class="st10" width="30" height="30"/>
			</g>
			<g>
				
					<rect x="2019.5" y="60" transform="matrix(6.123234e-17 -1 1 6.123234e-17 1959.4824 2109.4824)" class="st10" width="30" height="30"/>
				
					<rect x="2049.5" y="60" transform="matrix(6.123234e-17 -1 1 6.123234e-17 1989.4824 2139.4824)" class="st10" width="30" height="30"/>
				
					<rect x="2079.5" y="60" transform="matrix(6.123234e-17 -1 1 6.123234e-17 2019.4824 2169.4824)" class="st10" width="30" height="30"/>
				
					<rect x="2109.5" y="60" transform="matrix(6.123234e-17 -1 1 6.123234e-17 2049.4824 2199.4824)" class="st10" width="30" height="30"/>
				
					<rect x="2139.5" y="60" transform="matrix(6.123234e-17 -1 1 6.123234e-17 2079.4824 2229.4824)" class="st10" width="30" height="30"/>
			</g>
			<g>
				
					<rect x="2019.5" y="90" transform="matrix(6.123234e-17 -1 1 6.123234e-17 1929.4824 2139.4824)" class="st10" width="30" height="30"/>
				
					<rect x="2049.5" y="90" transform="matrix(6.123234e-17 -1 1 6.123234e-17 1959.4824 2169.4824)" class="st10" width="30" height="30"/>
				
					<rect x="2079.5" y="90" transform="matrix(6.123234e-17 -1 1 6.123234e-17 1989.4824 2199.4824)" class="st10" width="30" height="30"/>
				
					<rect x="2109.5" y="90" transform="matrix(6.123234e-17 -1 1 6.123234e-17 2019.4824 2229.4824)" class="st10" width="30" height="30"/>
				
					<rect x="2139.5" y="90" transform="matrix(6.123234e-17 -1 1 6.123234e-17 2049.4824 2259.4824)" class="st10" width="30" height="30"/>
			</g>
			<g>
				
					<rect x="2019.5" y="120" transform="matrix(6.123234e-17 -1 1 6.123234e-17 1899.4824 2169.4824)" class="st10" width="30" height="30"/>
				
					<rect x="2049.5" y="120" transform="matrix(6.123234e-17 -1 1 6.123234e-17 1929.4824 2199.4824)" class="st10" width="30" height="30"/>
				
					<rect x="2079.5" y="120" transform="matrix(6.123234e-17 -1 1 6.123234e-17 1959.4824 2229.4824)" class="st10" width="30" height="30"/>
				
					<rect x="2109.5" y="120" transform="matrix(6.123234e-17 -1 1 6.123234e-17 1989.4824 2259.4824)" class="st10" width="30" height="30"/>
				
					<rect x="2139.5" y="120" transform="matrix(6.123234e-17 -1 1 6.123234e-17 2019.4824 2289.4824)" class="st10" width="30" height="30"/>
			</g>
		</g>
		<g>
			<g>
				
					<rect x="2169.5" y="-150" transform="matrix(6.123234e-17 -1 1 6.123234e-17 2319.4824 2049.4824)" class="st10" width="30" height="30"/>
				
					<rect x="2199.5" y="-150" transform="matrix(6.123234e-17 -1 1 6.123234e-17 2349.4824 2079.4824)" class="st10" width="30" height="30"/>
				
					<rect x="2229.5" y="-150" transform="matrix(6.123234e-17 -1 1 6.123234e-17 2379.4824 2109.4824)" class="st10" width="30" height="30"/>
				
					<rect x="2259.5" y="-150" transform="matrix(6.123234e-17 -1 1 6.123234e-17 2409.4824 2139.4824)" class="st10" width="30" height="30"/>
				
					<rect x="2289.5" y="-150" transform="matrix(6.123234e-17 -1 1 6.123234e-17 2439.4824 2169.4824)" class="st10" width="30" height="30"/>
			</g>
			<g>
				
					<rect x="2169.5" y="-120" transform="matrix(6.123234e-17 -1 1 6.123234e-17 2289.4824 2079.4824)" class="st10" width="30" height="30"/>
				
					<rect x="2199.5" y="-120" transform="matrix(6.123234e-17 -1 1 6.123234e-17 2319.4824 2109.4824)" class="st10" width="30" height="30"/>
				
					<rect x="2229.5" y="-120" transform="matrix(6.123234e-17 -1 1 6.123234e-17 2349.4824 2139.4824)" class="st10" width="30" height="30"/>
				
					<rect x="2259.5" y="-120" transform="matrix(6.123234e-17 -1 1 6.123234e-17 2379.4824 2169.4824)" class="st10" width="30" height="30"/>
				
					<rect x="2289.5" y="-120" transform="matrix(6.123234e-17 -1 1 6.123234e-17 2409.4824 2199.4824)" class="st10" width="30" height="30"/>
			</g>
			<g>
				
					<rect x="2169.5" y="-90" transform="matrix(6.123234e-17 -1 1 6.123234e-17 2259.4824 2109.4824)" class="st10" width="30" height="30"/>
				
					<rect x="2199.5" y="-90" transform="matrix(6.123234e-17 -1 1 6.123234e-17 2289.4824 2139.4824)" class="st10" width="30" height="30"/>
				
					<rect x="2229.5" y="-90" transform="matrix(6.123234e-17 -1 1 6.123234e-17 2319.4824 2169.4824)" class="st10" width="30" height="30"/>
				
					<rect x="2259.5" y="-90" transform="matrix(6.123234e-17 -1 1 6.123234e-17 2349.4824 2199.4824)" class="st10" width="30" height="30"/>
				
					<rect x="2289.5" y="-90" transform="matrix(6.123234e-17 -1 1 6.123234e-17 2379.4824 2229.4824)" class="st10" width="30" height="30"/>
			</g>
			<g>
				
					<rect x="2169.5" y="-60" transform="matrix(6.123234e-17 -1 1 6.123234e-17 2229.4824 2139.4824)" class="st10" width="30" height="30"/>
				
					<rect x="2199.5" y="-60" transform="matrix(6.123234e-17 -1 1 6.123234e-17 2259.4824 2169.4824)" class="st10" width="30" height="30"/>
				
					<rect x="2229.5" y="-60" transform="matrix(6.123234e-17 -1 1 6.123234e-17 2289.4824 2199.4824)" class="st10" width="30" height="30"/>
				
					<rect x="2259.5" y="-60" transform="matrix(6.123234e-17 -1 1 6.123234e-17 2319.4824 2229.4824)" class="st10" width="30" height="30"/>
				
					<rect x="2289.5" y="-60" transform="matrix(6.123234e-17 -1 1 6.123234e-17 2349.4824 2259.4824)" class="st10" width="30" height="30"/>
			</g>
			<g>
				
					<rect x="2169.5" y="-30" transform="matrix(6.123234e-17 -1 1 6.123234e-17 2199.4824 2169.4824)" class="st10" width="30" height="30"/>
				
					<rect x="2199.5" y="-30" transform="matrix(6.123234e-17 -1 1 6.123234e-17 2229.4824 2199.4824)" class="st10" width="30" height="30"/>
				
					<rect x="2229.5" y="-30" transform="matrix(6.123234e-17 -1 1 6.123234e-17 2259.4824 2229.4824)" class="st10" width="30" height="30"/>
				
					<rect x="2259.5" y="-30" transform="matrix(6.123234e-17 -1 1 6.123234e-17 2289.4824 2259.4824)" class="st10" width="30" height="30"/>
				
					<rect x="2289.5" y="-30" transform="matrix(6.123234e-17 -1 1 6.123234e-17 2319.4824 2289.4824)" class="st10" width="30" height="30"/>
			</g>
		</g>
		<g>
			<g>
				
					<rect x="2169.5" transform="matrix(6.123234e-17 -1 1 6.123234e-17 2169.4824 2199.4824)" class="st10" width="30" height="30"/>
				
					<rect x="2199.5" transform="matrix(6.123234e-17 -1 1 6.123234e-17 2199.4824 2229.4824)" class="st10" width="30" height="30"/>
				
					<rect x="2229.5" transform="matrix(6.123234e-17 -1 1 6.123234e-17 2229.4824 2259.4824)" class="st10" width="30" height="30"/>
				
					<rect x="2259.5" transform="matrix(6.123234e-17 -1 1 6.123234e-17 2259.4824 2289.4824)" class="st10" width="30" height="30"/>
				
					<rect x="2289.5" transform="matrix(6.123234e-17 -1 1 6.123234e-17 2289.4824 2319.4824)" class="st10" width="30" height="30"/>
			</g>
			<g>
				
					<rect x="2169.5" y="30" transform="matrix(6.123234e-17 -1 1 6.123234e-17 2139.4824 2229.4824)" class="st10" width="30" height="30"/>
				
					<rect x="2199.5" y="30" transform="matrix(6.123234e-17 -1 1 6.123234e-17 2169.4824 2259.4824)" class="st10" width="30" height="30"/>
				
					<rect x="2229.5" y="30" transform="matrix(6.123234e-17 -1 1 6.123234e-17 2199.4824 2289.4824)" class="st10" width="30" height="30"/>
				
					<rect x="2259.5" y="30" transform="matrix(6.123234e-17 -1 1 6.123234e-17 2229.4824 2319.4824)" class="st10" width="30" height="30"/>
				
					<rect x="2289.5" y="30" transform="matrix(6.123234e-17 -1 1 6.123234e-17 2259.4824 2349.4824)" class="st10" width="30" height="30"/>
			</g>
			<g>
				
					<rect x="2169.5" y="60" transform="matrix(6.123234e-17 -1 1 6.123234e-17 2109.4824 2259.4824)" class="st10" width="30" height="30"/>
				
					<rect x="2199.5" y="60" transform="matrix(6.123234e-17 -1 1 6.123234e-17 2139.4824 2289.4824)" class="st10" width="30" height="30"/>
				
					<rect x="2229.5" y="60" transform="matrix(6.123234e-17 -1 1 6.123234e-17 2169.4824 2319.4824)" class="st10" width="30" height="30"/>
				
					<rect x="2259.5" y="60" transform="matrix(6.123234e-17 -1 1 6.123234e-17 2199.4824 2349.4824)" class="st10" width="30" height="30"/>
				
					<rect x="2289.5" y="60" transform="matrix(6.123234e-17 -1 1 6.123234e-17 2229.4824 2379.4824)" class="st10" width="30" height="30"/>
			</g>
			<g>
				
					<rect x="2169.5" y="90" transform="matrix(6.123234e-17 -1 1 6.123234e-17 2079.4824 2289.4824)" class="st10" width="30" height="30"/>
				
					<rect x="2199.5" y="90" transform="matrix(6.123234e-17 -1 1 6.123234e-17 2109.4824 2319.4824)" class="st10" width="30" height="30"/>
				
					<rect x="2229.5" y="90" transform="matrix(6.123234e-17 -1 1 6.123234e-17 2139.4824 2349.4824)" class="st10" width="30" height="30"/>
				
					<rect x="2259.5" y="90" transform="matrix(6.123234e-17 -1 1 6.123234e-17 2169.4824 2379.4824)" class="st10" width="30" height="30"/>
				
					<rect x="2289.5" y="90" transform="matrix(6.123234e-17 -1 1 6.123234e-17 2199.4824 2409.4824)" class="st10" width="30" height="30"/>
			</g>
			<g>
				
					<rect x="2169.5" y="120" transform="matrix(6.123234e-17 -1 1 6.123234e-17 2049.4824 2319.4824)" class="st10" width="30" height="30"/>
				
					<rect x="2199.5" y="120" transform="matrix(6.123234e-17 -1 1 6.123234e-17 2079.4824 2349.4824)" class="st10" width="30" height="30"/>
				
					<rect x="2229.5" y="120" transform="matrix(6.123234e-17 -1 1 6.123234e-17 2109.4824 2379.4824)" class="st10" width="30" height="30"/>
				
					<rect x="2259.5" y="120" transform="matrix(6.123234e-17 -1 1 6.123234e-17 2139.4824 2409.4824)" class="st10" width="30" height="30"/>
				
					<rect x="2289.5" y="120" transform="matrix(6.123234e-17 -1 1 6.123234e-17 2169.4824 2439.4824)" class="st10" width="30" height="30"/>
			</g>
		</g>
	</g>
	<g>
		<g>
			<g>
				
					<rect x="1119.5" y="-150" transform="matrix(6.123234e-17 -1 1 6.123234e-17 1269.4824 999.4825)" class="st10" width="30" height="30"/>
				
					<rect x="1149.5" y="-150" transform="matrix(6.123234e-17 -1 1 6.123234e-17 1299.4824 1029.4824)" class="st10" width="30" height="30"/>
				
					<rect x="1179.5" y="-150" transform="matrix(6.123234e-17 -1 1 6.123234e-17 1329.4824 1059.4824)" class="st10" width="30" height="30"/>
				
					<rect x="1209.5" y="-150" transform="matrix(6.123234e-17 -1 1 6.123234e-17 1359.4824 1089.4824)" class="st10" width="30" height="30"/>
				
					<rect x="1239.5" y="-150" transform="matrix(6.123234e-17 -1 1 6.123234e-17 1389.4824 1119.4824)" class="st10" width="30" height="30"/>
			</g>
			<g>
				
					<rect x="1119.5" y="-120" transform="matrix(6.123234e-17 -1 1 6.123234e-17 1239.4824 1029.4824)" class="st10" width="30" height="30"/>
				
					<rect x="1149.5" y="-120" transform="matrix(6.123234e-17 -1 1 6.123234e-17 1269.4824 1059.4824)" class="st10" width="30" height="30"/>
				
					<rect x="1179.5" y="-120" transform="matrix(6.123234e-17 -1 1 6.123234e-17 1299.4824 1089.4824)" class="st10" width="30" height="30"/>
				
					<rect x="1209.5" y="-120" transform="matrix(6.123234e-17 -1 1 6.123234e-17 1329.4824 1119.4824)" class="st10" width="30" height="30"/>
				
					<rect x="1239.5" y="-120" transform="matrix(6.123234e-17 -1 1 6.123234e-17 1359.4824 1149.4824)" class="st10" width="30" height="30"/>
			</g>
			<g>
				
					<rect x="1119.5" y="-90" transform="matrix(6.123234e-17 -1 1 6.123234e-17 1209.4824 1059.4824)" class="st10" width="30" height="30"/>
				
					<rect x="1149.5" y="-90" transform="matrix(6.123234e-17 -1 1 6.123234e-17 1239.4824 1089.4824)" class="st10" width="30" height="30"/>
				
					<rect x="1179.5" y="-90" transform="matrix(6.123234e-17 -1 1 6.123234e-17 1269.4824 1119.4824)" class="st10" width="30" height="30"/>
				
					<rect x="1209.5" y="-90" transform="matrix(6.123234e-17 -1 1 6.123234e-17 1299.4824 1149.4824)" class="st10" width="30" height="30"/>
				
					<rect x="1239.5" y="-90" transform="matrix(6.123234e-17 -1 1 6.123234e-17 1329.4824 1179.4824)" class="st10" width="30" height="30"/>
			</g>
			<g>
				
					<rect x="1119.5" y="-60" transform="matrix(6.123234e-17 -1 1 6.123234e-17 1179.4824 1089.4824)" class="st10" width="30" height="30"/>
				
					<rect x="1149.5" y="-60" transform="matrix(6.123234e-17 -1 1 6.123234e-17 1209.4824 1119.4824)" class="st10" width="30" height="30"/>
				
					<rect x="1179.5" y="-60" transform="matrix(6.123234e-17 -1 1 6.123234e-17 1239.4824 1149.4824)" class="st10" width="30" height="30"/>
				
					<rect x="1209.5" y="-60" transform="matrix(6.123234e-17 -1 1 6.123234e-17 1269.4824 1179.4824)" class="st10" width="30" height="30"/>
				
					<rect x="1239.5" y="-60" transform="matrix(6.123234e-17 -1 1 6.123234e-17 1299.4824 1209.4824)" class="st10" width="30" height="30"/>
			</g>
			<g>
				
					<rect x="1119.5" y="-30" transform="matrix(6.123234e-17 -1 1 6.123234e-17 1149.4824 1119.4824)" class="st10" width="30" height="30"/>
				
					<rect x="1149.5" y="-30" transform="matrix(6.123234e-17 -1 1 6.123234e-17 1179.4824 1149.4824)" class="st10" width="30" height="30"/>
				
					<rect x="1179.5" y="-30" transform="matrix(6.123234e-17 -1 1 6.123234e-17 1209.4824 1179.4824)" class="st10" width="30" height="30"/>
				
					<rect x="1209.5" y="-30" transform="matrix(6.123234e-17 -1 1 6.123234e-17 1239.4824 1209.4824)" class="st10" width="30" height="30"/>
				
					<rect x="1239.5" y="-30" transform="matrix(6.123234e-17 -1 1 6.123234e-17 1269.4824 1239.4824)" class="st10" width="30" height="30"/>
			</g>
		</g>
		<g>
			<g>
				
					<rect x="1119.5" transform="matrix(6.123234e-17 -1 1 6.123234e-17 1119.4824 1149.4824)" class="st10" width="30" height="30"/>
				
					<rect x="1149.5" transform="matrix(6.123234e-17 -1 1 6.123234e-17 1149.4824 1179.4824)" class="st10" width="30" height="30"/>
				
					<rect x="1179.5" transform="matrix(6.123234e-17 -1 1 6.123234e-17 1179.4824 1209.4824)" class="st10" width="30" height="30"/>
				
					<rect x="1209.5" transform="matrix(6.123234e-17 -1 1 6.123234e-17 1209.4824 1239.4824)" class="st10" width="30" height="30"/>
				
					<rect x="1239.5" transform="matrix(6.123234e-17 -1 1 6.123234e-17 1239.4824 1269.4824)" class="st10" width="30" height="30"/>
			</g>
			<g>
				
					<rect x="1119.5" y="30" transform="matrix(6.123234e-17 -1 1 6.123234e-17 1089.4824 1179.4824)" class="st10" width="30" height="30"/>
				
					<rect x="1149.5" y="30" transform="matrix(6.123234e-17 -1 1 6.123234e-17 1119.4824 1209.4824)" class="st10" width="30" height="30"/>
				
					<rect x="1179.5" y="30" transform="matrix(6.123234e-17 -1 1 6.123234e-17 1149.4824 1239.4824)" class="st10" width="30" height="30"/>
				
					<rect x="1209.5" y="30" transform="matrix(6.123234e-17 -1 1 6.123234e-17 1179.4824 1269.4824)" class="st10" width="30" height="30"/>
				
					<rect x="1239.5" y="30" transform="matrix(6.123234e-17 -1 1 6.123234e-17 1209.4824 1299.4824)" class="st10" width="30" height="30"/>
			</g>
			<g>
				
					<rect x="1119.5" y="60" transform="matrix(6.123234e-17 -1 1 6.123234e-17 1059.4824 1209.4824)" class="st10" width="30" height="30"/>
				
					<rect x="1149.5" y="60" transform="matrix(6.123234e-17 -1 1 6.123234e-17 1089.4824 1239.4824)" class="st10" width="30" height="30"/>
				
					<rect x="1179.5" y="60" transform="matrix(6.123234e-17 -1 1 6.123234e-17 1119.4824 1269.4824)" class="st10" width="30" height="30"/>
				
					<rect x="1209.5" y="60" transform="matrix(6.123234e-17 -1 1 6.123234e-17 1149.4824 1299.4824)" class="st10" width="30" height="30"/>
				
					<rect x="1239.5" y="60" transform="matrix(6.123234e-17 -1 1 6.123234e-17 1179.4824 1329.4824)" class="st10" width="30" height="30"/>
			</g>
			<g>
				
					<rect x="1119.5" y="90" transform="matrix(6.123234e-17 -1 1 6.123234e-17 1029.4824 1239.4824)" class="st10" width="30" height="30"/>
				
					<rect x="1149.5" y="90" transform="matrix(6.123234e-17 -1 1 6.123234e-17 1059.4824 1269.4824)" class="st10" width="30" height="30"/>
				
					<rect x="1179.5" y="90" transform="matrix(6.123234e-17 -1 1 6.123234e-17 1089.4824 1299.4824)" class="st10" width="30" height="30"/>
				
					<rect x="1209.5" y="90" transform="matrix(6.123234e-17 -1 1 6.123234e-17 1119.4824 1329.4824)" class="st10" width="30" height="30"/>
				
					<rect x="1239.5" y="90" transform="matrix(6.123234e-17 -1 1 6.123234e-17 1149.4824 1359.4824)" class="st10" width="30" height="30"/>
			</g>
			<g>
				
					<rect x="1119.5" y="120" transform="matrix(6.123234e-17 -1 1 6.123234e-17 999.4825 1269.4824)" class="st10" width="30" height="30"/>
				
					<rect x="1149.5" y="120" transform="matrix(6.123234e-17 -1 1 6.123234e-17 1029.4824 1299.4824)" class="st10" width="30" height="30"/>
				
					<rect x="1179.5" y="120" transform="matrix(6.123234e-17 -1 1 6.123234e-17 1059.4824 1329.4824)" class="st10" width="30" height="30"/>
				
					<rect x="1209.5" y="120" transform="matrix(6.123234e-17 -1 1 6.123234e-17 1089.4824 1359.4824)" class="st10" width="30" height="30"/>
				
					<rect x="1239.5" y="120" transform="matrix(6.123234e-17 -1 1 6.123234e-17 1119.4824 1389.4824)" class="st10" width="30" height="30"/>
			</g>
		</g>
		<g>
			<g>
				
					<rect x="1269.5" y="-150" transform="matrix(6.123234e-17 -1 1 6.123234e-17 1419.4824 1149.4824)" class="st10" width="30" height="30"/>
				
					<rect x="1299.5" y="-150" transform="matrix(6.123234e-17 -1 1 6.123234e-17 1449.4824 1179.4824)" class="st10" width="30" height="30"/>
				
					<rect x="1329.5" y="-150" transform="matrix(6.123234e-17 -1 1 6.123234e-17 1479.4824 1209.4824)" class="st10" width="30" height="30"/>
				
					<rect x="1359.5" y="-150" transform="matrix(6.123234e-17 -1 1 6.123234e-17 1509.4824 1239.4824)" class="st10" width="30" height="30"/>
				
					<rect x="1389.5" y="-150" transform="matrix(6.123234e-17 -1 1 6.123234e-17 1539.4824 1269.4824)" class="st10" width="30" height="30"/>
			</g>
			<g>
				
					<rect x="1269.5" y="-120" transform="matrix(6.123234e-17 -1 1 6.123234e-17 1389.4824 1179.4824)" class="st10" width="30" height="30"/>
				
					<rect x="1299.5" y="-120" transform="matrix(6.123234e-17 -1 1 6.123234e-17 1419.4824 1209.4824)" class="st10" width="30" height="30"/>
				
					<rect x="1329.5" y="-120" transform="matrix(6.123234e-17 -1 1 6.123234e-17 1449.4824 1239.4824)" class="st10" width="30" height="30"/>
				
					<rect x="1359.5" y="-120" transform="matrix(6.123234e-17 -1 1 6.123234e-17 1479.4824 1269.4824)" class="st10" width="30" height="30"/>
				
					<rect x="1389.5" y="-120" transform="matrix(6.123234e-17 -1 1 6.123234e-17 1509.4824 1299.4824)" class="st10" width="30" height="30"/>
			</g>
			<g>
				
					<rect x="1269.5" y="-90" transform="matrix(6.123234e-17 -1 1 6.123234e-17 1359.4824 1209.4824)" class="st10" width="30" height="30"/>
				
					<rect x="1299.5" y="-90" transform="matrix(6.123234e-17 -1 1 6.123234e-17 1389.4824 1239.4824)" class="st10" width="30" height="30"/>
				
					<rect x="1329.5" y="-90" transform="matrix(6.123234e-17 -1 1 6.123234e-17 1419.4824 1269.4824)" class="st10" width="30" height="30"/>
				
					<rect x="1359.5" y="-90" transform="matrix(6.123234e-17 -1 1 6.123234e-17 1449.4824 1299.4824)" class="st10" width="30" height="30"/>
				
					<rect x="1389.5" y="-90" transform="matrix(6.123234e-17 -1 1 6.123234e-17 1479.4824 1329.4824)" class="st10" width="30" height="30"/>
			</g>
			<g>
				
					<rect x="1269.5" y="-60" transform="matrix(6.123234e-17 -1 1 6.123234e-17 1329.4824 1239.4824)" class="st10" width="30" height="30"/>
				
					<rect x="1299.5" y="-60" transform="matrix(6.123234e-17 -1 1 6.123234e-17 1359.4824 1269.4824)" class="st10" width="30" height="30"/>
				
					<rect x="1329.5" y="-60" transform="matrix(6.123234e-17 -1 1 6.123234e-17 1389.4824 1299.4824)" class="st10" width="30" height="30"/>
				
					<rect x="1359.5" y="-60" transform="matrix(6.123234e-17 -1 1 6.123234e-17 1419.4824 1329.4824)" class="st10" width="30" height="30"/>
				
					<rect x="1389.5" y="-60" transform="matrix(6.123234e-17 -1 1 6.123234e-17 1449.4824 1359.4824)" class="st10" width="30" height="30"/>
			</g>
			<g>
				
					<rect x="1269.5" y="-30" transform="matrix(6.123234e-17 -1 1 6.123234e-17 1299.4824 1269.4824)" class="st10" width="30" height="30"/>
				
					<rect x="1299.5" y="-30" transform="matrix(6.123234e-17 -1 1 6.123234e-17 1329.4824 1299.4824)" class="st10" width="30" height="30"/>
				
					<rect x="1329.5" y="-30" transform="matrix(6.123234e-17 -1 1 6.123234e-17 1359.4824 1329.4824)" class="st10" width="30" height="30"/>
				
					<rect x="1359.5" y="-30" transform="matrix(6.123234e-17 -1 1 6.123234e-17 1389.4824 1359.4824)" class="st10" width="30" height="30"/>
				
					<rect x="1389.5" y="-30" transform="matrix(6.123234e-17 -1 1 6.123234e-17 1419.4824 1389.4824)" class="st10" width="30" height="30"/>
			</g>
		</g>
		<g>
			<g>
				
					<rect x="1269.5" transform="matrix(6.123234e-17 -1 1 6.123234e-17 1269.4824 1299.4824)" class="st10" width="30" height="30"/>
				
					<rect x="1299.5" transform="matrix(6.123234e-17 -1 1 6.123234e-17 1299.4824 1329.4824)" class="st10" width="30" height="30"/>
				
					<rect x="1329.5" transform="matrix(6.123234e-17 -1 1 6.123234e-17 1329.4824 1359.4824)" class="st10" width="30" height="30"/>
				
					<rect x="1359.5" transform="matrix(6.123234e-17 -1 1 6.123234e-17 1359.4824 1389.4824)" class="st10" width="30" height="30"/>
				
					<rect x="1389.5" transform="matrix(6.123234e-17 -1 1 6.123234e-17 1389.4824 1419.4824)" class="st10" width="30" height="30"/>
			</g>
			<g>
				
					<rect x="1269.5" y="30" transform="matrix(6.123234e-17 -1 1 6.123234e-17 1239.4824 1329.4824)" class="st10" width="30" height="30"/>
				
					<rect x="1299.5" y="30" transform="matrix(6.123234e-17 -1 1 6.123234e-17 1269.4824 1359.4824)" class="st10" width="30" height="30"/>
				
					<rect x="1329.5" y="30" transform="matrix(6.123234e-17 -1 1 6.123234e-17 1299.4824 1389.4824)" class="st10" width="30" height="30"/>
				
					<rect x="1359.5" y="30" transform="matrix(6.123234e-17 -1 1 6.123234e-17 1329.4824 1419.4824)" class="st10" width="30" height="30"/>
				
					<rect x="1389.5" y="30" transform="matrix(6.123234e-17 -1 1 6.123234e-17 1359.4824 1449.4824)" class="st10" width="30" height="30"/>
			</g>
			<g>
				
					<rect x="1269.5" y="60" transform="matrix(6.123234e-17 -1 1 6.123234e-17 1209.4824 1359.4824)" class="st10" width="30" height="30"/>
				
					<rect x="1299.5" y="60" transform="matrix(6.123234e-17 -1 1 6.123234e-17 1239.4824 1389.4824)" class="st10" width="30" height="30"/>
				
					<rect x="1329.5" y="60" transform="matrix(6.123234e-17 -1 1 6.123234e-17 1269.4824 1419.4824)" class="st10" width="30" height="30"/>
				
					<rect x="1359.5" y="60" transform="matrix(6.123234e-17 -1 1 6.123234e-17 1299.4824 1449.4824)" class="st10" width="30" height="30"/>
				
					<rect x="1389.5" y="60" transform="matrix(6.123234e-17 -1 1 6.123234e-17 1329.4824 1479.4824)" class="st10" width="30" height="30"/>
			</g>
			<g>
				
					<rect x="1269.5" y="90" transform="matrix(6.123234e-17 -1 1 6.123234e-17 1179.4824 1389.4824)" class="st10" width="30" height="30"/>
				
					<rect x="1299.5" y="90" transform="matrix(6.123234e-17 -1 1 6.123234e-17 1209.4824 1419.4824)" class="st10" width="30" height="30"/>
				
					<rect x="1329.5" y="90" transform="matrix(6.123234e-17 -1 1 6.123234e-17 1239.4824 1449.4824)" class="st10" width="30" height="30"/>
				
					<rect x="1359.5" y="90" transform="matrix(6.123234e-17 -1 1 6.123234e-17 1269.4824 1479.4824)" class="st10" width="30" height="30"/>
				
					<rect x="1389.5" y="90" transform="matrix(6.123234e-17 -1 1 6.123234e-17 1299.4824 1509.4824)" class="st10" width="30" height="30"/>
			</g>
			<g>
				
					<rect x="1269.5" y="120" transform="matrix(6.123234e-17 -1 1 6.123234e-17 1149.4824 1419.4824)" class="st10" width="30" height="30"/>
				
					<rect x="1299.5" y="120" transform="matrix(6.123234e-17 -1 1 6.123234e-17 1179.4824 1449.4824)" class="st10" width="30" height="30"/>
				
					<rect x="1329.5" y="120" transform="matrix(6.123234e-17 -1 1 6.123234e-17 1209.4824 1479.4824)" class="st10" width="30" height="30"/>
				
					<rect x="1359.5" y="120" transform="matrix(6.123234e-17 -1 1 6.123234e-17 1239.4824 1509.4824)" class="st10" width="30" height="30"/>
				
					<rect x="1389.5" y="120" transform="matrix(6.123234e-17 -1 1 6.123234e-17 1269.4824 1539.4824)" class="st10" width="30" height="30"/>
			</g>
		</g>
	</g>
</g>
</svg>
